<?xml version="1.0" encoding="utf-8"?>
<svg width="69.12604px" height="69.119px" viewBox="0 0 69.12604 69.119" version="1.1" xmlns:xlink="http://www.w3.org/1999/xlink" xmlns="http://www.w3.org/2000/svg">
  <g id="Group-2">
    <path d="M34.5625 69.119L34.5575 69.119C15.4708 69.1179 -0.00111008 53.6442 0 34.5575C0.00111008 15.4708 15.4748 -0.00111377 34.5615 1.20277e-07L34.5665 1.20277e-07C53.6532 1.20277e-07 69.126 15.4728 69.126 34.5595C69.126 53.6462 53.6532 69.119 34.5665 69.119M34.5665 0.437004C15.7215 0.437004 0.444511 15.7139 0.444511 34.559C0.444515 53.4041 15.7215 68.681 34.5665 68.681L34.5715 68.681C53.4166 68.681 68.6935 53.4041 68.6935 34.559C68.6935 15.7139 53.4166 0.437004 34.5715 0.437004L34.5665 0.437004Z" id="Path_594" fill="#FFFFFF" fill-rule="evenodd" stroke="none" />
    <path d="M34.5705 1.77401C16.4736 1.81264 1.83055 16.5072 1.85556 34.6042C1.88057 52.7012 16.5641 67.3553 34.6612 67.3439C52.7582 67.3325 67.4233 52.66 67.4255 34.563C67.417 25.8579 63.9507 17.5128 57.7891 11.3637C51.6275 5.21449 43.2755 1.76496 34.5705 1.774M34.5425 43.71C23.0417 43.683 13.738 34.3423 13.7566 22.8414C13.7751 11.3406 23.109 2.02997 34.6098 2.04007C46.1107 2.05017 55.4282 11.3772 55.4265 22.878C55.4111 34.397 46.0617 43.7232 34.5426 43.71" id="Path_595" fill="#FFFFFF" fill-rule="evenodd" stroke="none" />
    <path d="M34.5655 67.447L34.5655 67.447C22.7724 67.512 11.8472 61.2577 5.93187 51.0552C0.0164986 40.8528 0.0165253 28.2641 5.93195 18.0616C11.8474 7.85921 22.7726 1.60498 34.5657 1.67L34.5657 1.67C46.3588 1.60504 57.284 7.85932 63.1993 18.0618C69.1147 28.2642 69.1147 40.8529 63.1992 51.0554C57.2838 61.2578 46.3586 67.512 34.5655 67.447M34.5655 1.878C16.5163 1.87662 1.88339 16.5073 1.88201 34.5565C1.88063 52.6057 16.5113 67.2386 34.5605 67.24L34.5605 67.24C52.6097 67.2414 67.2426 52.6107 67.244 34.5615C67.2454 16.5123 52.6147 1.87938 34.5655 1.878L34.5655 1.878ZM34.5425 43.814L34.5425 43.814C22.9712 43.8124 13.5844 34.4453 13.5585 22.874C13.574 11.2988 22.9674 1.92648 34.5426 1.937L34.5426 1.937C46.1066 1.937 55.4811 11.3115 55.4811 22.8755C55.4811 34.4395 46.1066 43.814 34.5426 43.814M34.5426 43.607L34.5426 43.607C45.9923 43.607 55.2741 34.3252 55.2741 22.8755C55.2741 11.4258 45.9923 2.144 34.5426 2.144L34.5426 2.144C23.0929 2.144 13.8111 11.4258 13.8111 22.8755C13.8111 34.3252 23.0929 43.607 34.5426 43.607" id="Path_596" fill="#FFFFFF" fill-rule="evenodd" stroke="none" />
    <path d="M47.3425 43.985C48.5882 44.2348 49.8821 44.0309 50.9905 43.41C50.9905 43.41 50.9795 44.253 51.1685 44.464C51.3075 44.62 58.0835 51.001 58.0835 51.001L56.7055 52.801L47.3425 44.1C47.3425 44.1 47.2425 43.966 47.3425 43.987" id="Path_597" fill="#0B9C6C" stroke="none" />
    <path d="M46.5315 44.939C46.73 46.1859 46.5919 47.4633 46.1315 48.639L47.0825 48.739L49.7345 51.139C48.5743 52.168 47.3296 53.0976 46.0135 53.918C46.0135 53.918 45.8795 54.018 45.8295 53.918C45.7795 53.818 43.9615 51.071 43.9615 51.071C43.9615 51.071 43.6775 53.501 42.8435 54.4L42.8435 54.634C43.0537 54.6271 43.2633 54.661 43.4605 54.734C43.5878 54.7782 43.7024 54.8527 43.7945 54.951L45.6815 57.881C45.7233 58.2872 45.7102 58.6973 45.6425 59.1C45.5255 59.433 45.3745 60.132 43.7065 60.531C43.7065 60.531 43.5735 61.031 45.4755 60.898C46.3633 60.7713 47.1499 60.2595 47.6255 59.4992C48.101 58.739 48.217 57.8077 47.9425 56.954C47.9345 56.917 47.9235 56.878 47.9125 56.841C47.9125 56.841 52.2365 54.121 53.8645 51.954C53.8755 51.939 53.8855 51.924 53.8975 51.91C53.9095 51.896 47.1975 45.383 46.5295 44.939" id="Path_598" fill="#0B9C6C" stroke="none" />
    <path d="M40.1085 51.884C40.1085 51.884 40.2425 51.862 40.2645 52.039C40.2865 52.216 42.6215 59.274 42.6215 59.274C36.9081 61.1932 30.7002 61.0314 25.0945 58.817L28.9425 47.066C28.9425 47.066 28.9995 47.022 28.9995 47.066C29.3831 48.2206 30.0842 49.2437 31.0225 50.018L31.0105 50.14C30.5563 50.2298 30.1963 50.5765 30.0895 51.027C29.8225 51.847 28.4465 55.971 28.4465 56.103C28.4465 56.235 28.6975 56.237 28.8306 56.27C30.4709 56.7098 32.1594 56.9449 33.8576 56.97C35.6619 56.9878 37.464 56.8379 39.2406 56.522C39.1823 55.8427 38.751 55.2522 38.1216 54.99L38.0556 54.824C39.0882 54.1392 39.8221 53.0876 40.1086 51.882" id="Path_599" fill="#0B9C6C" stroke="none" />
    <path d="M24.1605 49.842C22.5613 49.705 20.9562 50.028 19.5345 50.773C19.7539 50.0293 19.8571 49.2562 19.8405 48.481C18.9946 49.0523 17.951 49.2505 16.9545 49.029C16.5355 48.947 16.7365 49.229 16.7365 49.229C16.7475 49.251 16.7575 49.274 16.7665 49.298C17.1093 49.8256 17.15 50.4943 16.8739 51.0596C16.5978 51.6249 16.0453 52.0039 15.4185 52.058C14.8851 52.0657 14.3782 51.8261 14.0456 51.409C13.713 50.9919 13.5922 50.4443 13.7185 49.926C13.7365 49.726 14.0365 48.18 16.6875 47.548C19.3386 46.916 18.7565 46.931 18.8555 46.848C18.9545 46.765 19.3725 46.366 19.2065 46.132C19.0405 45.898 18.7235 46.132 18.7235 46.132C18.5976 46.1675 18.4697 46.1956 18.3405 46.216C17.0999 46.3346 15.8799 46.6129 14.7105 47.044C11.3725 48.821 12.1505 51.727 12.1505 51.727C13.3725 56.19 17.2215 53.921 17.2215 53.921C19.1903 55.7996 21.5107 57.2707 24.0495 58.25C24.0495 58.25 25.9845 52.35 26.0295 52.169C26.0746 51.988 26.9865 50.017 24.1615 49.84M23.4275 52.5C23.2725 53.077 23.1156 53.75 22.9605 53.814L20.4685 52.033C21.2704 51.7659 22.1205 51.6754 22.9606 51.768C23.1215 51.7996 23.2625 51.8958 23.3507 52.034C23.439 52.1723 23.4667 52.3407 23.4276 52.5" id="Path_600" fill="#0B9C6C" fill-rule="evenodd" stroke="none" />
    <path d="M22.2715 47.247C22.2703 46.6881 22.606 46.1837 23.122 45.969C23.6379 45.7543 24.2324 45.8717 24.628 46.2664C25.0236 46.6612 25.1422 47.2554 24.9287 47.7718C24.7151 48.2882 24.2113 48.625 23.6525 48.625C22.8909 48.625 22.2731 48.0085 22.2715 47.247" id="Path_601" fill="#0B9C6C" stroke="none" />
    <path d="M30.8095 62.627C30.8083 62.0677 31.1443 61.5628 31.6607 61.348C32.1772 61.1332 32.7722 61.2508 33.168 61.646C33.5638 62.0412 33.6824 62.6361 33.4683 63.1528C33.2543 63.6696 32.7499 64.0064 32.1906 64.006C31.8245 64.0065 31.4732 63.8615 31.2142 63.6028C30.9551 63.3441 30.8096 62.9931 30.8096 62.627" id="Path_602" fill="#0B9C6C" stroke="none" />
    <path d="M35.5485 62.561C35.5473 62.0021 35.883 61.4977 36.399 61.283C36.9149 61.0683 37.5094 61.1857 37.905 61.5804C38.3006 61.9752 38.4193 62.5694 38.2057 63.0858C37.9921 63.6022 37.4883 63.939 36.9295 63.939C36.168 63.939 35.5502 63.3225 35.5485 62.561" id="Path_603" fill="#0B9C6C" stroke="none" />
    <path d="M46.2485 30.519L47.9785 23.501C48.6273 23.1572 49.3624 23.0101 50.0935 23.078C50.8242 23.0418 51.5533 23.1757 52.2235 23.469L53.3085 28.428C52.6313 30.5027 51.6716 32.4742 50.4565 34.287C49.2925 35.705 46.2485 30.519 46.2485 30.519" id="Path_604" fill="#FFFFFF" stroke="none" />
    <path d="M49.9615 34.584C48.5895 34.584 46.3035 30.709 46.2055 30.544L46.1945 30.526L47.9365 23.473L47.9495 23.463C48.6057 23.109 49.3523 22.958 50.0945 23.029C50.8336 22.9913 51.5712 23.1284 52.2475 23.429L52.2675 23.44L53.3595 28.434L53.3545 28.447C52.6745 30.5267 51.7122 32.5032 50.4945 34.321C50.3675 34.4869 50.1704 34.5841 49.9615 34.584M46.3035 30.511C46.4735 30.798 48.6925 34.485 49.9615 34.485C50.14 34.4855 50.3083 34.4017 50.4155 34.259C51.6261 32.4552 52.5821 30.4931 53.2565 28.428L52.1795 23.5C51.5218 23.2237 50.8114 23.0953 50.0985 23.124C49.3833 23.0695 48.6667 23.2094 48.0245 23.529L46.3035 30.511Z" id="Path_605" fill="#0B9C6C" fill-rule="evenodd" stroke="none" />
    <path d="M52.4085 23.32C51.6739 23.0188 50.8875 22.8639 50.0935 22.864C49.3043 22.8634 48.5228 23.0184 47.7935 23.32L47.9935 23.477C48.659 23.1884 49.3805 23.0517 50.1055 23.077C50.8286 23.0526 51.5487 23.18 52.2195 23.451L52.4085 23.32Z" id="Path_606" fill="#0B9C6C" stroke="none" />
    <path d="M52.3425 23.24L51.7565 20.482L51.6325 20.482L51.6325 20.719L51.5255 20.719L51.5255 20.809L51.4455 20.809L51.4455 20.779L51.3455 20.779L51.3455 20.643L51.2905 20.59L51.2135 20.59L51.2135 20.329L51.0935 20.329L51.0935 20.548L51.0035 20.548L50.9535 20.599L50.9535 20.686L50.8615 20.686L50.8615 20.653L50.8085 20.653L50.8085 20.537L50.7595 20.487L50.6895 20.487L50.6895 20.232L50.5555 20.232L50.5555 20.472L50.4385 20.523L50.4385 20.623L50.2715 20.623L50.2715 20.5L50.2215 20.449L50.1535 20.449L50.1535 20.2L50.0245 20.2L50.0245 20.461L49.9565 20.461L49.8875 20.529L49.8875 20.618L49.7425 20.618L49.7425 20.494L49.7045 20.457L49.6175 20.457L49.6175 20.238L49.4925 20.238L49.4925 20.488L49.4275 20.488L49.3635 20.552L49.3635 20.634L49.2695 20.634L49.2695 20.682L49.1985 20.682L49.1985 20.597L49.1545 20.555L49.0765 20.555L49.0765 20.336L48.9605 20.336L48.9605 20.595L48.8925 20.595L48.8315 20.656L48.8315 20.786L48.7365 20.786L48.7365 20.8L48.6795 20.8L48.6795 20.706L48.5505 20.706L48.5505 20.479L48.4165 20.479L47.8575 23.237C48.5703 22.9726 49.3265 22.845 50.0865 22.861C50.8549 22.8476 51.6191 22.9751 52.3415 23.237" id="Path_607" fill="#FFFFFF" stroke="none" />
    <path d="M47.7915 23.326L48.3745 20.431L48.6015 20.431L48.6015 20.657L48.7265 20.657L48.7265 20.731L48.7815 20.731L48.7815 20.631L48.8695 20.542L48.9055 20.542L48.9055 20.283L49.1225 20.283L49.1225 20.5L49.1715 20.5L49.2435 20.571L49.2435 20.579L49.3075 20.579L49.3075 20.527L49.4025 20.433L49.4375 20.433L49.4375 20.184L49.6615 20.184L49.6615 20.4L49.7205 20.4L49.7875 20.467L49.7875 20.567L49.8345 20.567L49.8345 20.5L49.9345 20.4L49.9735 20.4L49.9735 20.138L50.2025 20.138L50.2025 20.4L50.2435 20.4L50.3225 20.48L50.3225 20.573L50.3885 20.573L50.3885 20.487L50.5055 20.437L50.5055 20.18L50.7405 20.18L50.7405 20.434L50.7805 20.434L50.8605 20.513L50.8605 20.6L50.9005 20.594L50.9005 20.573L50.9805 20.493L51.0415 20.493L51.0415 20.275L51.2625 20.275L51.2625 20.535L51.3115 20.535L51.3925 20.618L51.3925 20.725L51.4735 20.725L51.4735 20.664L51.5805 20.664L51.5805 20.427L51.7965 20.427L52.4095 23.319L52.3215 23.282C51.6053 23.0231 50.848 22.8967 50.0865 22.909C49.3339 22.8939 48.5851 23.0208 47.8795 23.283L47.7915 23.326ZM48.4575 20.532L47.9265 23.161C48.6214 22.9227 49.352 22.8054 50.0865 22.814C50.8294 22.8067 51.5684 22.924 52.2725 23.161L51.7165 20.532L51.6815 20.532L51.6815 20.768L51.5745 20.768L51.5745 20.859L51.3955 20.859L51.3955 20.828L51.2955 20.828L51.2955 20.663L51.2725 20.639L51.1645 20.639L51.1645 20.379L51.1425 20.379L51.1425 20.6L51.0235 20.6L51.0025 20.621L51.0025 20.739L50.8105 20.739L50.8105 20.706L50.7615 20.706L50.7615 20.558L50.7405 20.537L50.6405 20.537L50.6405 20.28L50.6065 20.28L50.6065 20.5L50.4895 20.551L50.4895 20.672L50.2225 20.672L50.2225 20.52L50.2015 20.498L50.1015 20.498L50.1015 20.242L50.0745 20.242L50.0745 20.505L49.9745 20.505L49.9345 20.544L49.9345 20.663L49.6895 20.663L49.6895 20.51L49.6805 20.5L49.5635 20.5L49.5635 20.282L49.5425 20.282L49.5425 20.531L49.4425 20.531L49.4075 20.566L49.4075 20.677L49.3075 20.677L49.3075 20.724L49.1425 20.724L49.1425 20.612L49.1325 20.6L49.0245 20.6L49.0245 20.381L49.0075 20.381L49.0075 20.639L48.9135 20.639L48.8825 20.671L48.8825 20.831L48.7825 20.831L48.7825 20.852L48.6255 20.852L48.6255 20.752L48.5025 20.752L48.5025 20.527L48.4575 20.532Z" id="Path_608" fill="#0B9C6C" fill-rule="evenodd" stroke="none" />
    <path d="M49.8415 22.4L50.3515 22.4L50.3515 22.864L49.8415 22.864L49.8415 22.4Z" id="Rectangle_191" fill="#FFFFFF" fill-rule="evenodd" stroke="none" />
    <path d="M50.4015 22.913L49.7925 22.913L49.7925 22.349L50.4015 22.349L50.4015 22.913ZM49.8915 22.813L50.3005 22.813L50.3005 22.45L49.8905 22.45L49.8915 22.813Z" id="Path_609" fill="#0B9C6C" fill-rule="evenodd" stroke="none" />
    <path d="M22.6135 30.516L20.8845 23.5C20.2361 23.1551 19.5008 23.0077 18.7695 23.076C18.0388 23.0394 17.3096 23.1732 16.6395 23.467L15.5535 28.426C16.2307 30.5006 17.1896 32.4724 18.4035 34.286C19.5695 35.704 22.6125 30.518 22.6125 30.518" id="Path_610" fill="#FFFFFF" stroke="none" />
    <path d="M18.8985 34.579L18.8985 34.579C18.6899 34.5789 18.4932 34.4817 18.3665 34.316C17.1497 32.497 16.1878 30.52 15.5075 28.44L15.5025 28.427L16.5955 23.433L16.6155 23.423C17.2913 23.1231 18.0281 22.986 18.7665 23.023C19.5093 22.9525 20.2564 23.1035 20.9135 23.457L20.9275 23.467L20.9275 23.485L22.6605 30.522L22.6515 30.54C22.5515 30.706 20.2675 34.58 18.8955 34.579M15.6035 28.421C16.2786 30.4857 17.2338 32.448 18.4425 34.253C18.5498 34.3957 18.718 34.4795 18.8965 34.479C20.1665 34.479 22.3865 30.795 22.5575 30.507L20.8425 23.529C20.202 23.2097 19.4871 23.0698 18.7735 23.124C18.0591 23.0956 17.3471 23.224 16.6875 23.5L15.6035 28.421Z" id="Path_611" fill="#0B9C6C" fill-rule="evenodd" stroke="none" />
    <path d="M16.4535 23.316C17.1889 23.0149 17.9759 22.86 18.7705 22.86C19.5597 22.8594 20.3412 23.0144 21.0705 23.316L20.8705 23.474C20.2055 23.1847 19.4842 23.048 18.7595 23.074C18.0361 23.0495 17.3156 23.1769 16.6445 23.448L16.4535 23.316Z" id="Path_612" fill="#0B9C6C" stroke="none" />
    <path d="M16.5235 23.235L17.1095 20.478L17.2355 20.478L17.2355 20.714L17.3425 20.714L17.3425 20.8L17.4215 20.8L17.4215 20.77L17.5215 20.77L17.5215 20.634L17.5755 20.58L17.6545 20.58L17.6545 20.32L17.7745 20.32L17.7745 20.538L17.8655 20.538L17.9155 20.589L17.9155 20.676L18.0075 20.676L18.0075 20.643L18.0585 20.643L18.0585 20.528L18.1085 20.478L18.1795 20.478L18.1795 20.223L18.3135 20.223L18.3135 20.463L18.4305 20.515L18.4305 20.615L18.5965 20.615L18.5965 20.5L18.6485 20.45L18.7155 20.45L18.7155 20.194L18.8425 20.194L18.8425 20.456L18.9105 20.456L18.9795 20.524L18.9795 20.613L19.1265 20.613L19.1265 20.489L19.1635 20.452L19.2505 20.452L19.2505 20.233L19.3755 20.233L19.3755 20.483L19.4425 20.483L19.5065 20.547L19.5065 20.629L19.6005 20.629L19.6005 20.677L19.6725 20.677L19.6725 20.592L19.7145 20.55L19.7925 20.55L19.7925 20.331L19.9095 20.331L19.9095 20.59L19.9745 20.59L20.0345 20.65L20.0345 20.78L20.1345 20.78L20.1345 20.8L20.1905 20.8L20.1905 20.7L20.3195 20.7L20.3195 20.474L20.4535 20.474L21.0105 23.232C20.2982 22.9673 19.5422 22.8397 18.7825 22.856C18.014 22.8416 17.2493 22.9684 16.5265 23.23" id="Path_613" fill="#FFFFFF" stroke="none" />
    <path d="M21.0735 23.322L20.9855 23.283C20.2798 23.0209 19.5312 22.8937 18.7785 22.908C18.0168 22.8959 17.2591 23.0223 16.5425 23.281L16.4536 23.318L17.0695 20.426L17.2866 20.426L17.2866 20.664L17.3926 20.664L17.3926 20.724L17.4726 20.724L17.4726 20.616L17.5536 20.534L17.6026 20.534L17.6026 20.273L17.8236 20.273L17.8236 20.492L17.8846 20.492L17.9636 20.571L17.9636 20.6L18.0056 20.6L18.0056 20.511L18.0846 20.433L18.1246 20.433L18.1246 20.179L18.3596 20.179L18.3596 20.435L18.4766 20.486L18.4766 20.571L18.5425 20.571L18.5425 20.478L18.6225 20.398L18.6605 20.398L18.6605 20.142L18.8905 20.142L18.8905 20.4L18.9296 20.4L19.0295 20.5L19.0295 20.561L19.0755 20.561L19.0755 20.461L19.1425 20.4L19.2015 20.4L19.2015 20.18L19.4255 20.18L19.4255 20.429L19.4615 20.429L19.5565 20.522L19.5565 20.575L19.6205 20.575L19.6205 20.567L19.6925 20.496L19.7425 20.496L19.7425 20.277L19.9595 20.277L19.9595 20.536L19.9955 20.536L20.0835 20.625L20.0835 20.725L20.1365 20.725L20.1365 20.651L20.2645 20.651L20.2645 20.425L20.4885 20.425L21.0735 23.322ZM18.7735 22.81C19.5082 22.8012 20.2389 22.9189 20.9335 23.158L20.4025 20.528L20.3585 20.528L20.3585 20.754L20.2325 20.754L20.2325 20.848L20.0745 20.848L20.0745 20.827L19.9745 20.827L19.9745 20.667L19.9445 20.635L19.8495 20.635L19.8495 20.377L19.8425 20.377L19.8425 20.6L19.7355 20.6L19.7225 20.614L19.7225 20.726L19.5525 20.726L19.5525 20.679L19.4585 20.679L19.4585 20.568L19.4235 20.533L19.3305 20.533L19.3305 20.28L19.3025 20.28L19.3025 20.5L19.1855 20.5L19.1775 20.51L19.1775 20.663L18.9315 20.663L18.9315 20.545L18.8905 20.506L18.7905 20.506L18.7905 20.243L18.7615 20.243L18.7615 20.5L18.6615 20.5L18.6395 20.523L18.6395 20.675L18.3735 20.675L18.3735 20.55L18.2555 20.498L18.2555 20.276L18.2215 20.276L18.2215 20.531L18.1216 20.531L18.1005 20.552L18.1005 20.7L18.0495 20.7L18.0495 20.733L17.8575 20.733L17.8575 20.616L17.8365 20.595L17.7155 20.595L17.7155 20.376L17.6965 20.376L17.6965 20.636L17.5885 20.636L17.5655 20.66L17.5655 20.825L17.4655 20.825L17.4655 20.856L17.2875 20.856L17.2875 20.765L17.1805 20.765L17.1805 20.53L17.1455 20.53L16.5855 23.158C17.291 22.9225 18.0308 22.8059 18.7745 22.813" id="Path_614" fill="#0B9C6C" fill-rule="evenodd" stroke="none" />
    <path d="M18.5135 22.396L19.0215 22.396L19.0215 22.86L18.5135 22.86L18.5135 22.396Z" id="Rectangle_192" fill="#FFFFFF" fill-rule="evenodd" stroke="none" />
    <path d="M19.0725 22.909L18.4635 22.909L18.4635 22.345L19.0725 22.345L19.0725 22.909ZM18.5625 22.809L18.9715 22.809L18.9715 22.445L18.5625 22.445L18.5625 22.809Z" id="Path_615" fill="#0B9C6C" fill-rule="evenodd" stroke="none" />
    <path d="M42.0365 21.1L27.0285 21.247L18.9825 25.517L18.1825 33.417C18.1825 33.417 22.0635 42.306 35.5745 42.473" id="Path_616" fill="#FFFFFF" stroke="none" />
    <path d="M35.5725 42.573C28.5625 42.487 24.1845 40.017 21.7465 37.96C20.2286 36.7299 18.9832 35.1974 18.0895 33.46L18.0795 33.435L18.0795 33.41L18.8865 25.456L27.0015 21.149L27.0255 21.149L42.0365 21L42.0365 21.2L27.0535 21.347L19.0765 25.58L18.2825 33.4C19.1693 35.1012 20.3944 36.6033 21.8825 37.814C24.2945 39.846 28.6295 42.288 35.5755 42.374L35.5725 42.573Z" id="Path_617" fill="#0B9C6C" stroke="none" />
    <path d="M35.5725 42.474C41.866 42.1614 47.6189 38.822 51.0115 33.512L50.1215 25.479L42.0355 21.1" id="Path_618" fill="#FFFFFF" stroke="none" />
    <path d="M35.5725 42.573L35.5725 42.373C37.4797 42.2889 39.3627 41.9121 41.1555 41.256C45.1913 39.8433 48.6288 37.1038 50.9065 33.485L50.0275 25.537L41.9895 21.184L42.0895 21.008L50.2205 25.408L51.1205 33.528L51.1005 33.558C48.7976 37.2315 45.3133 40.0122 41.2205 41.443C39.4087 42.1054 37.5058 42.4848 35.5785 42.568" id="Path_619" fill="#0B9C6C" stroke="none" />
    <path d="M41.0805 17.077C39.0327 16.1772 36.8036 15.7663 34.5695 15.877C29.8245 15.877 28.1035 17.177 28.1035 17.177L22.8125 38.636C26.2118 41.1361 30.3228 42.4812 34.5425 42.474C38.8028 42.5486 42.9626 41.1766 46.3425 38.582L41.0805 17.077Z" id="Path_620" fill="#FFFFFF" stroke="none" />
    <path d="M34.5425 42.573C30.3009 42.5846 26.1681 41.2317 22.7545 38.714L22.7025 38.675L22.7175 38.611L28.0175 17.117L28.0425 17.1C28.1145 17.045 29.8425 15.783 34.5685 15.782L34.5825 15.782C36.8292 15.6806 39.0692 16.0955 41.1305 16.995L41.1675 17.016L41.1785 17.057L46.4545 38.626L46.4045 38.666C43.0026 41.2657 38.8235 42.6422 34.5425 42.573M22.9275 38.593C26.2963 41.061 30.3664 42.3863 34.5425 42.375C38.7585 42.4426 42.8751 41.0928 46.2325 38.542L40.9975 17.142C38.9728 16.2835 36.7829 15.8849 34.5855 15.975L34.5715 15.975C30.2315 15.975 28.4325 17.075 28.1925 17.233L22.9275 38.593Z" id="Path_621" fill="#0B9C6C" fill-rule="evenodd" stroke="none" />
    <path d="M41.6265 16.622C39.3797 15.698 36.9739 15.2225 34.5445 15.222C32.1277 15.2191 29.7344 15.6949 27.5025 16.622L28.1115 17.099C30.146 16.2161 32.3521 15.7993 34.5685 15.879C36.7805 15.8036 38.9837 16.1933 41.0355 17.023L41.6265 16.622Z" id="Path_622" fill="#0B9C6C" stroke="none" />
    <path d="M41.5495 16.522L39.6425 7.938L39.2605 7.938L39.2605 8.662L38.9425 8.662L38.9425 8.937L38.6995 8.937L38.6995 8.845L38.3925 8.845L38.3925 8.428L38.2295 8.265L37.9915 8.265L37.9915 7.471L37.6245 7.471L37.6245 8.136L37.3425 8.136L37.1885 8.29L37.1885 8.56001L36.9125 8.56001L36.9125 8.46L36.7535 8.46L36.7535 8.1L36.5985 7.946L36.3865 7.946L36.3865 7.172L35.9775 7.172L35.9775 7.9L35.6185 8.059L35.6185 8.374L35.1105 8.374L35.1105 8L34.9505 7.842L34.7425 7.842L34.7425 7.063L34.3525 7.063L34.3525 7.863L34.1425 7.863L33.9305 8.074L33.9305 8.344L33.4835 8.344L33.4835 7.962L33.3665 7.846L33.0995 7.846L33.0995 7.18L32.7155 7.18L32.7155 7.946L32.5155 7.946L32.3155 8.141L32.3155 8.395L32.0285 8.395L32.0285 8.536L31.8125 8.536L31.8125 8.277L31.6825 8.149L31.4445 8.149L31.4445 7.478L31.0865 7.478L31.0865 8.269L30.8865 8.269L30.7025 8.452L30.7025 8.852L30.4115 8.852L30.4115 8.916L30.2425 8.916L30.2425 8.626L29.8505 8.626L29.8505 7.936L29.4425 7.936L27.6125 16.569C29.8031 15.6409 32.1636 15.1811 34.5425 15.219C36.9386 15.1878 39.3173 15.6296 41.5425 16.519" id="Path_623" fill="#FFFFFF" stroke="none" />
    <path d="M27.4695 16.751L29.3585 7.837L29.9485 7.837L29.9485 8.529L30.3425 8.529L30.3425 8.753L30.6095 8.753L30.6095 8.411L30.8525 8.17L30.9935 8.17L30.9935 7.38L31.5515 7.38L31.5515 8.05L31.7295 8.05L31.9185 8.237L31.9185 8.437L31.9355 8.437L31.9355 8.3L32.2235 8.3L32.2235 8.1L32.4785 7.846L32.6195 7.846L32.6195 7.082L33.2035 7.082L33.2035 7.746L33.4105 7.746L33.5875 7.922L33.5875 8.245L33.8335 8.245L33.8335 8.034L34.1045 7.763L34.2545 7.763L34.2545 6.963L34.8425 6.963L34.8425 7.745L34.9925 7.745L35.2095 7.962L35.2095 8.28L35.5175 8.28L35.5175 8L35.8765 7.841L35.8765 7.073L36.4855 7.073L36.4855 7.851L36.6425 7.851L36.8545 8.063L36.8545 8.363L37.0135 8.363L37.0135 8.463L37.0925 8.463L37.0925 8.251L37.3055 8.039L37.5225 8.039L37.5225 7.374L38.0905 7.374L38.0905 8.168L38.2695 8.168L38.4905 8.388L38.4905 8.746L38.7975 8.746L38.7975 8.838L38.8425 8.838L38.8425 8.563L39.1675 8.563L39.1675 7.839L39.7315 7.839L41.6915 16.7L41.5075 16.615C39.292 15.7353 36.9262 15.2965 34.5425 15.323C32.1774 15.2881 29.8308 15.7437 27.6505 16.661L27.4695 16.751ZM29.5205 8.037L27.7485 16.4C29.9105 15.536 32.2204 15.1026 34.5485 15.124C36.8931 15.1082 39.2204 15.5251 41.4135 16.354L39.5675 8.038L39.3675 8.038L39.3675 8.763L39.0425 8.763L39.0425 9.037L38.5995 9.037L38.5995 8.946L38.2915 8.946L38.2915 8.47L38.1915 8.37L37.8915 8.37L37.8915 7.57L37.7245 7.57L37.7245 8.236L37.3905 8.236L37.2905 8.336L37.2905 8.665L36.8115 8.665L36.8115 8.565L36.6525 8.565L36.6525 8.144L36.5526 8.05L36.2815 8.05L36.2815 7.272L36.0735 7.272L36.0735 7.972L35.7135 8.131L35.7135 8.481L35.0055 8.481L35.0055 8.045L34.9055 7.945L34.6425 7.945L34.6425 7.163L34.4525 7.163L34.4525 7.963L34.1845 7.963L34.0315 8.118L34.0315 8.446L33.3845 8.446L33.3845 8L33.3265 7.943L33.0015 7.943L33.0015 7.28L32.8175 7.28L32.8175 8.044L32.5575 8.044L32.4205 8.181L32.4205 8.493L32.1335 8.493L32.1335 8.636L31.7155 8.636L31.7155 8.318L31.6445 8.248L31.3445 8.248L31.3445 7.577L31.1855 7.577L31.1855 8.367L30.9325 8.367L30.8075 8.491L30.8075 8.95L30.5145 8.95L30.5145 9.016L30.1425 9.016L30.1425 8.725L29.7425 8.725L29.7425 8.035L29.5155 8.035L29.5205 8.037Z" id="Path_624" fill="#0B9C6C" fill-rule="evenodd" stroke="none" />
    <path d="M35.4535 15.322L33.6965 15.322L33.6965 13.7L35.4545 13.7L35.4535 15.322ZM33.8965 15.122L35.2545 15.122L35.2545 13.9L33.8975 13.9L33.8965 15.122Z" id="Path_625" fill="#0B9C6C" fill-rule="evenodd" stroke="none" />
    <path d="M40.8675 29.1C40.8675 29.1 38.4355 28.8 34.5675 31.656C34.5675 31.656 31.2505 29.001 28.4125 28.809C28.4125 28.809 33.3835 31.109 34.0605 32.109C33.6869 32.592 33.2496 33.0223 32.7605 33.388C32.7605 33.388 32.2125 32.178 31.6605 32.768C31.5685 32.8321 31.5117 32.9355 31.507 33.0476C31.5023 33.1596 31.5502 33.2674 31.6365 33.339C31.6365 33.339 31.9445 33.669 32.1665 33.456L32.3105 33.632C32.1768 33.8229 31.9793 33.9598 31.7535 34.018C31.7535 34.018 31.0315 33.635 31.0165 34.479C31.0165 34.479 31.4385 35.396 32.8095 34.207C32.8095 34.207 33.4315 34.958 33.8835 34.828C33.8835 34.828 34.7425 34.568 34.0335 33.979C34.0335 33.979 33.7975 33.76 33.4485 34.179L33.1655 33.939C33.1655 33.939 34.4435 32.752 34.5345 32.68C34.6255 32.608 35.8605 33.93 35.8605 33.93L35.6845 34.164C35.5748 34.0205 35.3962 33.9474 35.2174 33.9726C35.0385 33.9979 34.8872 34.1177 34.8215 34.286C34.8215 34.286 34.9535 35.329 35.8395 34.635L36.2825 34.235C36.2825 34.235 37.3025 35.268 37.8825 34.835C37.8825 34.835 38.3255 34.455 38.0165 34.147C37.9504 34.0536 37.8492 33.991 37.7361 33.9737C37.6229 33.9564 37.5076 33.9857 37.4165 34.055C37.4165 34.055 37.1675 34.111 36.7615 33.668L36.9615 33.457C36.9615 33.457 37.3855 33.806 37.6155 33.227C37.6155 33.227 37.8005 32.697 36.9555 32.705C36.9555 32.705 36.6865 32.829 36.4125 33.454L35.1425 32.2C36.7829 30.7331 38.7444 29.6714 40.8695 29.1" id="Path_626" fill="#0B9C6C" stroke="none" />
    <path d="M34.3885 24.939C34.154 25.2499 34.0536 25.6416 34.1095 26.027C33.6603 25.5587 33.5869 24.8449 33.9315 24.295C33.9315 24.295 33.3185 24.371 33.0905 25.624C32.8475 24.9536 32.9764 24.2046 33.4295 23.654C32.9673 23.9396 32.6053 24.3617 32.3935 24.862C32.3696 24.1244 32.7867 23.4432 33.4545 23.129C33.1061 23.1216 32.7625 23.2105 32.4615 23.386C32.7188 22.7594 33.4267 22.4497 34.0615 22.686C34.0615 22.686 33.5985 22.096 33.2955 22.106C33.7285 22.0442 34.1687 22.1516 34.5245 22.406C34.5017 22.2097 34.5698 22.0138 34.7095 21.874C34.8016 22.0772 34.9244 22.2651 35.0735 22.431C35.3573 22.2155 35.7159 22.1233 36.0685 22.175C36.0685 22.175 35.6085 22.496 35.5395 22.696C35.5395 22.696 36.8475 22.661 37.0485 23.627C37.0485 23.627 36.2825 23.063 35.8635 23.215C36.5758 23.5055 37.0707 24.164 37.1515 24.929C37.1515 24.929 36.4025 23.817 36.0035 23.755C36.0035 23.755 36.7035 24.914 36.2875 25.612C36.2875 25.612 35.9975 24.363 35.6245 24.178C35.6245 24.178 35.7985 25.57 35.3585 26.01C35.3585 26.01 35.1845 25.015 34.8445 24.876L34.7895 28.932C34.7915 29.0916 34.8372 29.2475 34.9215 29.383C34.8993 29.5112 34.8966 29.642 34.9135 29.771C34.9659 29.8356 35.0004 29.9129 35.0135 29.995C35.0468 30.1226 35.044 30.2569 35.0055 30.383C35.0607 30.5306 35.1435 30.6664 35.2495 30.783L33.8815 30.833C34.004 30.6641 34.0973 30.4758 34.1575 30.276C34.1248 30.0713 34.157 29.8615 34.2495 29.676C34.2777 29.417 34.3375 29.1625 34.4275 28.918L34.3885 24.939Z" id="Path_627" fill="#0B9C6C" stroke="none" />
    <path d="M34.5425 42.807C23.4941 42.7822 14.5557 33.8092 14.5736 22.7607C14.5914 11.7123 23.5587 2.76822 34.6072 2.77906C45.6557 2.78991 54.6054 11.7515 54.6015 22.8C54.573 33.8578 45.6007 42.8069 34.5427 42.807M34.5425 3.313C23.79 3.33729 15.0905 12.0687 15.1056 22.8213C15.1206 33.5738 23.8447 42.2808 34.5972 42.275C45.3497 42.2691 54.0642 33.5525 54.0675 22.8C54.0459 12.0314 45.3106 3.31337 34.5423 3.313" id="Path_628" fill="#FFFFFF" fill-rule="evenodd" stroke="none" />
  </g>
</svg>