<?xml version="1.0" encoding="utf-8"?>
<svg width="171px" height="37.21306px" viewBox="0 0 171 37.21306" version="1.1" xmlns:xlink="http://www.w3.org/1999/xlink" xmlns="http://www.w3.org/2000/svg">
  <g id="Group">
    <path d="M0 17.0209C0.0033989 15.9135 0.141758 14.8107 0.412018 13.7369L3.35902 13.1859C3.02331 14.3379 2.84898 15.5309 2.84102 16.7309C2.84102 19.0135 3.55135 20.1549 4.97202 20.1549C6.32868 20.1549 7.00702 19.0135 7.00702 16.7309L7.00702 9.14694L9.84 9.14694L9.84 9.43594C9.84921 10.2559 9.77887 11.0747 9.62999 11.881L9.66499 11.881C10.0065 10.9749 10.623 10.1983 11.428 9.66002C12.1713 9.15028 13.0527 8.87988 13.954 8.88501C15.0636 8.81342 16.1472 9.241 16.909 10.051C18.3311 12.0925 18.1976 14.8362 16.584 16.73C15.3666 17.7491 13.7989 18.2515 12.216 18.13L9.7 18.13C9.37866 21.0593 7.73267 22.524 4.762 22.524C1.58733 22.5253 0 20.6909 0 17.0209M12.445 15.7619C14.123 15.7619 14.962 14.9719 14.962 13.3919C14.962 11.9919 14.4287 11.2919 13.362 11.2919C12.4545 11.3525 11.6296 11.8401 11.139 12.6059C10.4431 13.5319 9.98534 14.6146 9.806 15.7589L12.445 15.7619ZM12.699 7.41194C12.4256 7.12293 12.2776 6.73763 12.287 6.33994C12.2794 5.94791 12.4276 5.56888 12.699 5.28593C12.9576 5.01196 13.3177 4.85669 13.6945 4.85669C14.0713 4.85669 14.4314 5.01196 14.69 5.28593C14.9629 5.56796 15.1113 5.94762 15.102 6.33994C15.1115 6.73765 14.9634 7.12299 14.69 7.41193C14.4355 7.69554 14.071 7.85556 13.69 7.85093C13.3113 7.85667 12.9492 7.69623 12.699 7.41193" id="Path_629" fill="#FFFFFF" fill-rule="evenodd" stroke="none" />
    <path d="M19.83 4.65994L22.671 4.65994L22.671 15.7599L24.355 15.7599L24.355 18.1299L19.83 18.1299L19.83 4.65994Z" id="Path_630" fill="#FFFFFF" stroke="none" />
    <path d="M24.092 15.7619L28.538 15.7619L28.538 18.1319L24.092 18.1319L24.092 15.7619Z" id="Rectangle_193" fill="#FFFFFF" fill-rule="evenodd" stroke="none" />
    <path d="M28.373 15.7619L32.819 15.7619L32.819 18.1319L28.373 18.1319L28.373 15.7619Z" id="Rectangle_194" fill="#FFFFFF" fill-rule="evenodd" stroke="none" />
    <path d="M32.653 15.7619L35.889 15.7619L35.889 9.14694L38.722 9.14694L38.722 18.1299L32.653 18.1299L32.653 15.7619ZM35.135 22.0399C34.896 22.318 34.5456 22.4752 34.179 22.4689C33.8129 22.4728 33.4635 22.316 33.223 22.0399C32.6964 21.4462 32.6964 20.5527 33.223 19.9589C33.4657 19.6862 33.8134 19.5302 34.1785 19.5302C34.5436 19.5302 34.8913 19.6862 35.134 19.9589C35.6606 20.5527 35.6606 21.4462 35.134 22.0399M38.334 22.0399C38.0897 22.3131 37.7405 22.4693 37.374 22.4693C37.0075 22.4693 36.6584 22.3131 36.414 22.0399C35.8992 21.4418 35.8992 20.5571 36.414 19.9589C36.6584 19.6858 37.0075 19.5296 37.374 19.5296C37.7405 19.5296 38.0897 19.6858 38.334 19.9589C38.8488 20.5571 38.8488 21.4418 38.334 22.0399" id="Path_631" fill="#FFFFFF" fill-rule="evenodd" stroke="none" />
    <path d="M40.081 22.8329L40.281 20.4449C40.6788 20.5489 41.0888 20.599 41.5 20.5939C41.9535 20.6328 42.3997 20.461 42.71 20.1279C43.0403 19.5852 43.1879 18.9508 43.131 18.3179L43.131 9.14793L45.972 9.14793L45.972 15.7629L47.603 15.7629L47.603 18.1329L45.974 18.1329L45.974 18.2059C45.974 21.3653 44.4333 22.9449 41.352 22.9449C40.9258 22.9464 40.5003 22.9086 40.081 22.8319" id="Path_632" fill="#FFFFFF" stroke="none" />
    <path d="M47.317 15.7619L49.36 15.7619L49.36 4.66193L52.22 4.66193L52.22 18.1309L47.32 18.1309L47.317 15.7619Z" id="Path_633" fill="#FFFFFF" stroke="none" />
    <path d="M55.009 4.65994L57.85 4.65994L57.85 18.1309L55.009 18.1309L55.009 4.65994Z" id="Rectangle_195" fill="#FFFFFF" fill-rule="evenodd" stroke="none" />
    <path d="M68.235 18.1309C65.0017 18.1309 63.385 16.6663 63.385 13.7369C63.3348 12.506 63.748 11.301 64.543 10.3599C65.5046 9.33925 66.8704 8.7991 68.27 8.88594C69.593 8.85532 70.9094 9.08044 72.147 9.54894L72.147 15.7619L73.77 15.7619L73.77 18.1319L68.235 18.1309ZM65.463 7.46793C65.2058 7.18159 65.0677 6.80775 65.077 6.42294C65.0699 6.03849 65.2077 5.66544 65.463 5.37794C65.7057 5.10518 66.0534 4.94915 66.4185 4.94915C66.7836 4.94915 67.1313 5.10518 67.374 5.37794C67.6345 5.66291 67.7759 6.0369 67.769 6.42294C67.7781 6.80935 67.6364 7.18412 67.374 7.46793C67.1343 7.74578 66.7855 7.90552 66.4185 7.90552C66.0515 7.90552 65.7027 7.74578 65.463 7.46793M69.384 11.5529C68.9541 11.3394 68.4778 11.2363 67.998 11.2529C67.4796 11.235 66.9851 11.4718 66.674 11.8869C66.3489 12.3395 66.1852 12.8882 66.209 13.4449C66.1185 14.0824 66.3333 14.7253 66.7889 15.1803C67.2445 15.6353 67.8877 15.8493 68.525 15.7579L69.384 15.7579L69.384 11.5539L69.384 11.5529ZM68.656 7.46793C68.1415 6.86625 68.1415 5.97962 68.656 5.37794C68.9004 5.10477 69.2495 4.94862 69.616 4.94862C69.9825 4.94862 70.3317 5.10477 70.576 5.37794C70.8313 5.66544 70.9691 6.03849 70.962 6.42294C70.9713 6.80775 70.8333 7.18158 70.576 7.46793C70.3346 7.74615 69.9844 7.90597 69.616 7.90597C69.2477 7.90597 68.8974 7.74615 68.656 7.46793" id="Path_634" fill="#FFFFFF" fill-rule="evenodd" stroke="none" />
    <path d="M73.497 15.7619L77.943 15.7619L77.943 18.1319L73.497 18.1319L73.497 15.7619Z" id="Rectangle_196" fill="#FFFFFF" fill-rule="evenodd" stroke="none" />
    <path d="M77.777 15.7619L78.33 15.7619C78.6626 15.7599 78.9946 15.7911 79.321 15.8549C78.898 15.2187 78.6921 14.4628 78.734 13.6999C78.6832 12.4081 79.1613 11.1514 80.058 10.2199C80.9489 9.32469 82.1727 8.84127 83.435 8.88593C84.5989 8.80945 85.7432 9.21437 86.6 10.0059C87.4084 10.9121 87.8163 12.1066 87.731 13.3179C87.8119 14.2388 87.518 15.1535 86.916 15.8549C87.3282 15.7942 87.7443 15.7631 88.161 15.7619L88.951 15.7619L88.951 18.1319L77.778 18.1319L77.778 15.7619L77.777 15.7619ZM80.697 7.46893C80.4397 7.18259 80.3017 6.80875 80.311 6.42393C80.3038 6.03949 80.4417 5.66644 80.697 5.37894C80.9397 5.10618 81.2874 4.95015 81.6525 4.95015C82.0176 4.95015 82.3653 5.10618 82.608 5.37894C82.8672 5.66412 83.0074 6.03765 83 6.42294C83.009 6.80935 82.8674 7.18412 82.605 7.46793C82.3687 7.7507 82.0174 7.91167 81.649 7.90594C81.2812 7.9087 80.9311 7.74829 80.693 7.46793M84.421 15.1819C84.758 14.6903 84.9229 14.1011 84.89 13.5059C84.89 12.0066 84.3463 11.2573 83.259 11.2579C82.8133 11.248 82.386 11.4358 82.092 11.7709C81.7156 12.2392 81.528 12.8314 81.566 13.4309C81.566 14.9856 82.1096 15.7633 83.197 15.7639C83.6761 15.781 84.134 15.5653 84.426 15.1849M83.891 7.47094C83.3765 6.86926 83.3765 5.98263 83.891 5.38094C84.1353 5.10777 84.4844 4.95163 84.851 4.95163C85.2175 4.95163 85.5666 5.10777 85.811 5.38094C86.0714 5.66592 86.2128 6.03991 86.2059 6.42594C86.215 6.81236 86.0733 7.18713 85.811 7.47094C85.5695 7.74916 85.2193 7.90897 84.851 7.90897C84.4826 7.90897 84.1324 7.74916 83.891 7.47094" id="Path_635" fill="#FFFFFF" fill-rule="evenodd" stroke="none" />
    <path d="M88.679 15.7619L90.688 15.7619L90.688 4.66193L93.547 4.66193L93.547 9.43793C93.5584 10.2591 93.4789 11.0791 93.31 11.8829L93.345 11.8829C93.6918 10.9771 94.3109 10.2012 95.117 9.6619C95.8612 9.15384 96.742 8.88359 97.643 8.88689C98.7505 8.81387 99.8323 9.24188 100.59 10.0529C101.294 10.9547 101.643 12.0831 101.572 13.2249C101.597 14.1048 101.4 14.9768 101 15.7609L102.781 15.7609L102.781 18.1309L88.681 18.1309L88.679 15.7619ZM96.279 15.7619C96.9302 15.8456 97.5835 15.6232 98.0485 15.1596C98.5135 14.696 98.7378 14.0434 98.656 13.3919C98.656 11.9919 98.1227 11.2919 97.056 11.2919C96.1523 11.3551 95.3322 11.8435 94.846 12.6079C94.1484 13.5319 93.6932 14.6159 93.522 15.7609L96.279 15.7619Z" id="Path_636" fill="#FFFFFF" fill-rule="evenodd" stroke="none" />
    <path d="M102.4 15.7619L104.821 15.7619L104.821 9.14693L107.68 9.14693L107.68 15.7619L109.294 15.7619L109.294 18.1319L102.4 18.1319L102.4 15.7619ZM105.25 7.41193C104.983 7.12012 104.839 6.73566 104.85 6.33994C104.841 5.94996 104.985 5.5719 105.25 5.28594C105.504 5.00861 105.865 4.85262 106.241 4.85694C106.623 4.85001 106.99 5.00602 107.25 5.28594C107.523 5.56797 107.671 5.94762 107.662 6.33994C107.672 6.73766 107.523 7.123 107.25 7.41195C106.993 7.69697 106.625 7.857 106.241 7.85095C105.863 7.85442 105.502 7.69438 105.25 7.41195" id="Path_637" fill="#FFFFFF" fill-rule="evenodd" stroke="none" />
    <path d="M109.018 18.1309L109.018 15.7609L109.79 15.7609C110.121 15.7485 110.451 15.799 110.763 15.9099C110.172 15.2548 109.885 14.3808 109.973 13.5029C109.934 12.3198 110.359 11.1683 111.157 10.2939C112.094 9.33008 113.401 8.81696 114.744 8.88594C115.949 8.79678 117.13 9.25217 117.963 10.1269C118.673 11.0408 119.025 12.182 118.954 13.3369L118.954 18.1319L109.018 18.1309ZM116.184 13.6629C116.184 12.0583 115.646 11.2559 114.57 11.2559C114.049 11.2364 113.551 11.4732 113.237 11.8899C112.912 12.3425 112.748 12.8912 112.772 13.4479C112.682 14.0852 112.896 14.7279 113.352 15.1829C113.807 15.6378 114.45 15.852 115.087 15.7609L116.187 15.7609L116.184 13.6629Z" id="Path_638" fill="#FFFFFF" fill-rule="evenodd" stroke="none" />
    <path d="M128.971 18.1309C125.738 18.1309 124.121 16.6663 124.121 13.7369C124.071 12.506 124.484 11.301 125.279 10.3599C126.241 9.33925 127.606 8.7991 129.006 8.88594C130.329 8.85532 131.645 9.08044 132.883 9.54894L132.883 15.7619L134.506 15.7619L134.506 18.1319L128.971 18.1309ZM126.2 7.46793C125.943 7.18159 125.805 6.80775 125.814 6.42294C125.807 6.03849 125.945 5.66544 126.2 5.37794C126.443 5.10518 126.79 4.94915 127.155 4.94915C127.521 4.94915 127.868 5.10518 128.111 5.37794C128.371 5.66291 128.513 6.0369 128.506 6.42294C128.515 6.80935 128.373 7.18412 128.111 7.46793C127.871 7.74578 127.522 7.90552 127.155 7.90552C126.788 7.90552 126.44 7.74578 126.2 7.46793M130.121 11.5529C129.691 11.3394 129.215 11.2363 128.735 11.2529C128.217 11.235 127.722 11.4718 127.411 11.8869C127.086 12.3395 126.922 12.8882 126.946 13.4449C126.856 14.0822 127.07 14.7249 127.526 15.1799C127.981 15.6348 128.624 15.8489 129.261 15.7579L130.12 15.7579L130.121 11.5529ZM129.392 7.46793C128.878 6.86625 128.878 5.97962 129.392 5.37794C129.636 5.10477 129.985 4.94862 130.352 4.94862C130.718 4.94862 131.068 5.10477 131.312 5.37794C131.567 5.66544 131.705 6.03849 131.698 6.42294C131.707 6.80775 131.569 7.18158 131.312 7.46793C131.071 7.74615 130.72 7.90597 130.352 7.90597C129.984 7.90597 129.633 7.74615 129.392 7.46793" id="Path_639" fill="#FFFFFF" fill-rule="evenodd" stroke="none" />
    <path d="M134.234 15.7619L138.68 15.7619L138.68 18.1319L134.234 18.1319L134.234 15.7619Z" id="Rectangle_197" fill="#FFFFFF" fill-rule="evenodd" stroke="none" />
    <path d="M138.513 15.7619L140.934 15.7619L140.934 9.14694L143.793 9.14694L143.793 18.1299L138.513 18.1299L138.513 15.7619ZM141.364 7.41194C141.096 7.12012 140.953 6.73566 140.964 6.33994C140.955 5.94996 141.099 5.5719 141.364 5.28594C141.618 5.00861 141.979 4.85262 142.355 4.85694C142.737 4.85001 143.104 5.00602 143.364 5.28594C143.637 5.56797 143.785 5.94762 143.776 6.33994C143.786 6.73765 143.637 7.12299 143.364 7.41194C143.107 7.69696 142.739 7.85699 142.355 7.85094C141.977 7.85441 141.616 7.69437 141.364 7.41194" id="Path_640" fill="#FFFFFF" fill-rule="evenodd" stroke="none" />
    <path d="M146.355 4.65994L149.2 4.65994L149.2 15.7599L150.884 15.7599L150.884 18.1299L146.358 18.1299L146.355 4.65994Z" id="Path_641" fill="#FFFFFF" stroke="none" />
    <path d="M150.617 15.7619L155.063 15.7619L155.063 18.1319L150.617 18.1319L150.617 15.7619Z" id="Rectangle_198" fill="#FFFFFF" fill-rule="evenodd" stroke="none" />
    <path d="M154.9 18.1309L154.9 15.7609L155.672 15.7609C156.003 15.7485 156.333 15.799 156.645 15.9099C156.054 15.2548 155.767 14.3808 155.855 13.5029C155.816 12.3198 156.241 11.1683 157.039 10.2939C157.976 9.33007 159.283 8.81696 160.626 8.88594C161.831 8.79678 163.012 9.25217 163.845 10.1269C164.555 11.0408 164.907 12.182 164.836 13.3369L164.836 18.1319L154.9 18.1309ZM162.066 13.6629C162.066 12.0583 161.528 11.2559 160.452 11.2559C159.931 11.2364 159.433 11.4732 159.119 11.8899C158.794 12.3425 158.63 12.8912 158.654 13.4479C158.564 14.0852 158.778 14.7279 159.234 15.1829C159.689 15.6378 160.332 15.852 160.969 15.7609L162.069 15.7609L162.066 13.6629Z" id="Path_642" fill="#FFFFFF" fill-rule="evenodd" stroke="none" />
    <path d="M166.185 2.70592C166.507 2.69895 166.828 2.73255 167.141 2.80593C166.909 2.61529 166.788 2.32163 166.817 2.02293C166.815 1.49836 167.05 1.00098 167.457 0.66993C168.071 0.191513 168.839 -0.0444717 169.615 0.00692749C169.862 0.0091629 170.108 0.030899 170.352 0.0719299L170.729 0.12793L170.475 1.62093L170.175 1.57394C169.966 1.54968 169.755 1.53732 169.544 1.53693C168.995 1.53693 168.72 1.7236 168.72 2.09693C168.72 2.5016 169.115 2.7036 169.904 2.70293L171 2.70293L171 4.23293L166.185 4.23293L166.185 2.70592ZM167.285 5.23293L170.126 5.23293L170.126 18.1309L167.285 18.1309L167.285 5.23293Z" id="Path_643" fill="#FFFFFF" fill-rule="evenodd" stroke="none" />
    <path d="M4.55402 37.0469L2.77502 33.8579L2.67002 33.8579L2.67002 37.0469L0.900024 37.0469L0.900024 28.8989C1.43936 28.8556 2.23736 28.8339 3.29402 28.8339C5.22336 28.8339 6.18802 29.6396 6.18802 31.2509C6.19733 31.7679 6.03562 32.2734 5.72803 32.6889C5.43464 33.0926 5.01067 33.3823 4.52803 33.5089C4.80203 33.9023 4.99969 34.2089 5.12103 34.4289L6.71203 37.0459L4.55402 37.0459L4.55402 37.0469ZM3.16302 30.3849C2.99804 30.3836 2.83311 30.3916 2.66903 30.4089L2.66903 32.4959C2.81604 32.5133 2.964 32.5213 3.11203 32.5199C3.43911 32.5369 3.76053 32.4297 4.01203 32.2199C4.23743 32.0113 4.35929 31.7138 4.34503 31.4069C4.34503 30.7229 3.95136 30.3809 3.16403 30.3809" id="Path_644" fill="#FFFFFF" fill-rule="evenodd" stroke="none" />
    <path d="M8.10602 28.8989L9.87402 28.8989L9.87402 37.0469L8.10602 37.0469L8.10602 28.8989Z" id="Rectangle_199" fill="#FFFFFF" fill-rule="evenodd" stroke="none" />
    <path d="M15.389 34.1989L15.389 37.0459L13.615 37.0459L13.615 34.2059L11.221 28.8939L13.15 28.8939L14.026 30.9689C14.226 31.4529 14.3887 31.8863 14.514 32.2689L14.536 32.2689C14.636 31.9589 14.8337 31.4676 15.129 30.7949L15.955 28.8949L17.817 28.8949L15.389 34.1989Z" id="Path_645" fill="#FFFFFF" stroke="none" />
    <path d="M23.785 37.0469L23.32 35.5369L20.648 35.5369L20.193 37.0469L18.436 37.0469L20.98 28.8989L23.08 28.8989L25.724 37.0469L23.785 37.0469ZM22.272 32.0469C22.1686 31.7209 22.0706 31.3436 21.978 30.9149L21.956 30.9149C21.8413 31.4343 21.7506 31.8156 21.684 32.0589L21.068 34.0519L22.886 34.0519L22.272 32.0469Z" id="Path_646" fill="#FFFFFF" fill-rule="evenodd" stroke="none" />
    <path d="M32.315 36.0059C31.4998 36.7686 30.4088 37.1659 29.294 37.1059C28.7173 37.1059 27.9597 37.0826 27.021 37.0359L27.021 28.9239C27.821 28.8726 28.6913 28.8469 29.632 28.8469C32.1893 28.8469 33.468 30.1676 33.468 32.8089C33.5381 33.9872 33.1209 35.1425 32.314 36.0039M31.139 31.1169C30.7491 30.6312 30.1411 30.3742 29.521 30.4329C29.2771 30.4286 29.0331 30.4366 28.79 30.4569L28.79 35.4449C29.0084 35.4782 29.2291 35.4942 29.45 35.4929C30.0225 35.5205 30.578 35.294 30.968 34.8739C31.4017 34.3334 31.6159 33.6493 31.568 32.9579C31.6141 32.3145 31.463 31.6723 31.135 31.1169" id="Path_647" fill="#FFFFFF" fill-rule="evenodd" stroke="none" />
    <path d="M39.763 37.0469L39.763 33.6569L36.963 33.6569L36.963 37.0469L35.19 37.0469L35.19 28.8989L36.958 28.8989L36.958 32.0239L39.758 32.0239L39.758 28.8989L41.532 28.8989L41.532 37.0469L39.763 37.0469Z" id="Path_648" fill="#FFFFFF" stroke="none" />
    <path d="M50.127 37.0469L48.348 33.8579L48.243 33.8579L48.243 37.0469L46.475 37.0469L46.475 28.8989C47.0143 28.8556 47.8123 28.8339 48.869 28.8339C50.7983 28.8339 51.763 29.6396 51.763 31.2509C51.7723 31.7679 51.6106 32.2734 51.303 32.6889C51.0096 33.0926 50.5856 33.3823 50.103 33.5089C50.377 33.9023 50.5746 34.2089 50.696 34.4289L52.287 37.0459L50.127 37.0459L50.127 37.0469ZM48.735 30.3849C48.57 30.3836 48.4051 30.3916 48.241 30.4089L48.241 32.4959C48.388 32.5133 48.536 32.5213 48.684 32.5199C49.0111 32.5369 49.3325 32.4297 49.584 32.2199C49.8094 32.0113 49.9312 31.7138 49.917 31.4069C49.917 30.7229 49.5233 30.3809 48.736 30.3809" id="Path_649" fill="#FFFFFF" fill-rule="evenodd" stroke="none" />
    <path d="M53.679 37.0469L53.679 28.8989L57.991 28.8989L57.991 30.4789L55.447 30.4789L55.447 32.0939L57.858 32.0939L57.858 33.6259L55.447 33.6259L55.447 35.4259L57.991 35.4259L57.991 37.0409L53.679 37.0409L53.679 37.0469Z" id="Path_650" fill="#FFFFFF" stroke="none" />
    <path d="M66.155 36.6459C65.3045 37.0115 64.3867 37.1945 63.461 37.1829C62.382 37.2544 61.3231 36.8669 60.545 36.1159C59.8571 35.3276 59.5069 34.3003 59.57 33.2559C59.5033 32.0644 59.9053 30.8941 60.69 29.9949C61.5389 29.1487 62.7084 28.7046 63.905 28.7739C64.6571 28.7687 65.4053 28.882 66.122 29.1099L65.767 30.8259C65.1509 30.5765 64.4917 30.4504 63.827 30.4549C63.1438 30.4072 62.4776 30.6822 62.027 31.1979C61.6326 31.7229 61.436 32.3703 61.472 33.0259C61.4318 33.6691 61.6245 34.3053 62.015 34.8179C62.4313 35.2751 63.033 35.518 63.65 35.4779C63.8967 35.4835 64.1425 35.4456 64.376 35.3659L64.376 32.7059L66.15 32.7059L66.155 36.6459Z" id="Path_651" fill="#FFFFFF" stroke="none" />
    <path d="M68.172 28.8989L69.94 28.8989L69.94 37.0469L68.172 37.0469L68.172 28.8989Z" id="Rectangle_200" fill="#FFFFFF" fill-rule="evenodd" stroke="none" />
    <path d="M77.837 36.0269C77.161 36.7967 76.1793 37.2282 75.155 37.2059C74.147 37.2728 73.1654 36.8661 72.5 36.1059C71.2479 34.2026 71.3464 31.7134 72.745 29.9149C73.4228 29.1482 74.404 28.7191 75.427 28.7419C76.4351 28.6751 77.4167 29.0818 78.082 29.8419C79.3341 31.7431 79.2355 34.2308 77.837 36.0269M75.3 30.4559C74.7884 30.4407 74.3021 30.6786 74 31.0919C73.6325 31.6281 73.4532 32.271 73.49 32.9199C73.49 34.6259 74.083 35.4786 75.269 35.4779C75.7807 35.4931 76.267 35.2552 76.569 34.8419C76.9366 34.3103 77.1161 33.6712 77.079 33.0259C77.079 31.3139 76.486 30.4573 75.3 30.4559" id="Path_652" fill="#FFFFFF" fill-rule="evenodd" stroke="none" />
    <path d="M84.82 37.0469L82.842 33.0379C82.6009 32.5319 82.4003 32.0076 82.242 31.4699C82.2934 32.4093 82.3194 33.5469 82.32 34.8829L82.32 37.0459L80.63 37.0459L80.63 28.8979L82.958 28.8979L84.865 32.7709C85.1219 33.2975 85.3425 33.8411 85.525 34.3979C85.4697 33.5846 85.442 32.4273 85.442 30.9259L85.442 28.8979L87.142 28.8979L87.142 37.0459L84.82 37.0469Z" id="Path_653" fill="#FFFFFF" stroke="none" />
    <path d="M99.28 37.0469L98.792 33.6149C98.7073 33.0683 98.628 32.3923 98.554 31.5869L98.532 31.5869C98.388 32.3696 98.2363 33.0673 98.077 33.6799L97.102 37.0459L95.456 37.0459L94.525 33.9329C94.3012 33.1633 94.1308 32.3791 94.015 31.586L93.993 31.586C93.9303 32.4586 93.8583 33.192 93.777 33.786L93.406 37.047L91.62 37.047L92.845 28.899L94.88 28.899L95.944 32.507C96.1145 33.0911 96.255 33.6835 96.365 34.282L96.387 34.282C96.4995 33.6831 96.6438 33.0906 96.819 32.507L97.9 28.899L99.9 28.899L101.125 37.047L99.28 37.0469Z" id="Path_654" fill="#FFFFFF" stroke="none" />
    <path d="M108.979 33.8459C108.979 36.0859 107.896 37.2059 105.731 37.2059C103.71 37.2059 102.7 36.1956 102.699 34.1749L102.699 28.8979L104.467 28.8979L104.467 34.0619C104.436 34.4619 104.535 34.8611 104.75 35.1999C105.026 35.5055 105.432 35.6611 105.842 35.6189C106.236 35.6593 106.628 35.5235 106.912 35.2479C107.158 34.8646 107.269 34.4104 107.228 33.9569L107.228 28.8989L108.979 28.8989L108.979 33.8459Z" id="Path_655" fill="#FFFFFF" stroke="none" />
    <path d="M115.209 37.0469L113.231 33.0379C112.99 32.5319 112.789 32.0076 112.631 31.4699C112.682 32.4093 112.708 33.5469 112.709 34.8829L112.709 37.046L111.018 37.046L111.018 28.8979L113.346 28.8979L115.253 32.771C115.51 33.2976 115.73 33.8412 115.913 34.3979C115.858 33.5846 115.83 32.4273 115.83 30.9259L115.83 28.8979L117.53 28.8979L117.53 37.046L115.209 37.0469Z" id="Path_656" fill="#FFFFFF" stroke="none" />
    <path d="M119.564 28.8989L121.332 28.8989L121.332 37.0469L119.564 37.0469L119.564 28.8989Z" id="Rectangle_201" fill="#FFFFFF" fill-rule="evenodd" stroke="none" />
    <path d="M128.564 36.8059C127.956 37.0422 127.309 37.1603 126.657 37.1539C125.557 37.239 124.486 36.7703 123.802 35.9039C123.282 35.127 123.025 34.203 123.071 33.2689C123.007 32.1156 123.359 30.9776 124.063 30.0619C124.784 29.2288 125.85 28.7758 126.95 28.8349C127.482 28.826 128.012 28.9037 128.519 29.0649L128.292 30.7809C127.854 30.6106 127.388 30.5244 126.918 30.5269C126.367 30.4996 125.838 30.7467 125.505 31.1869C125.149 31.7058 124.976 32.3279 125.012 32.9559C125.012 34.6146 125.679 35.4439 127.012 35.4439C127.464 35.4525 127.911 35.3469 128.312 35.1369L128.564 36.8059Z" id="Path_657" fill="#FFFFFF" stroke="none" />
    <path d="M130.355 28.8989L132.123 28.8989L132.123 37.0469L130.355 37.0469L130.355 28.8989Z" id="Rectangle_202" fill="#FFFFFF" fill-rule="evenodd" stroke="none" />
    <path d="M138.7 33.5569C138.076 34.1614 137.228 34.4775 136.361 34.4289C136.202 34.4289 136.061 34.4289 135.94 34.4179L135.94 37.0479L134.172 37.0479L134.172 28.8999C134.9 28.8566 135.665 28.8349 136.467 28.8349C138.477 28.8349 139.482 29.7056 139.482 31.4469C139.514 32.2269 139.232 32.9871 138.7 33.5579M136.383 30.3859C136.239 30.3859 136.091 30.3859 135.94 30.3969L135.94 32.8319C136.11 32.8663 136.283 32.8824 136.456 32.8799C137.256 32.8799 137.656 32.4576 137.656 31.6129C137.656 30.7949 137.231 30.3859 136.381 30.3859" id="Path_658" fill="#FFFFFF" fill-rule="evenodd" stroke="none" />
    <path d="M145.662 37.0469L145.197 35.5369L142.525 35.5369L142.07 37.0469L140.313 37.0469L142.857 28.8989L144.957 28.8989L147.601 37.0469L145.662 37.0469ZM144.148 32.0469C144.045 31.7209 143.947 31.3436 143.854 30.9149L143.832 30.9149C143.717 31.4343 143.627 31.8156 143.561 32.0589L142.945 34.0519L144.763 34.0519L144.148 32.0469Z" id="Path_659" fill="#FFFFFF" fill-rule="evenodd" stroke="none" />
    <path d="M148.9 37.0469L148.9 28.8989L150.668 28.8989L150.668 35.3779L152.985 35.3779L152.985 37.0459L148.9 37.0459L148.9 37.0469Z" id="Path_660" fill="#FFFFFF" stroke="none" />
    <path d="M154.457 28.8989L156.225 28.8989L156.225 37.0469L154.457 37.0469L154.457 28.8989Z" id="Rectangle_203" fill="#FFFFFF" fill-rule="evenodd" stroke="none" />
    <path d="M161.345 30.5059L161.345 37.0499L159.588 37.0499L159.588 30.5059L157.748 30.5059L157.748 28.9059L163.185 28.9059L163.185 30.5059L161.345 30.5059Z" id="Path_661" fill="#FFFFFF" stroke="none" />
    <path d="M168.174 34.1989L168.174 37.0459L166.4 37.0459L166.4 34.2059L164.005 28.8939L165.934 28.8939L166.81 30.9689C167.01 31.4529 167.173 31.8863 167.298 32.2689L167.32 32.2689C167.42 31.9589 167.618 31.4676 167.913 30.7949L168.739 28.8949L170.6 28.8949L168.174 34.1989Z" id="Path_662" fill="#FFFFFF" stroke="none" />
  </g>
</svg>