<svg id="Vector_Smart_Object" data-name="Vector Smart Object" xmlns="http://www.w3.org/2000/svg" xmlns:xlink="http://www.w3.org/1999/xlink" width="171" height="115" viewBox="0 0 171 115">
  <defs>
    <clipPath id="clip-path">
      <rect id="Rectangle_204" data-name="Rectangle 204" width="171" height="115" fill="none"/>
    </clipPath>
  </defs>
  <g id="Group_388" data-name="Group 388">
    <g id="Group_387" data-name="Group 387" clip-path="url(#clip-path)">
      <path id="Path_594" data-name="Path 594" d="M85.42,69.119h-.005A34.559,34.559,0,1,1,85.419,0h.005a34.559,34.559,0,1,1,0,69.119m0-68.682a34.122,34.122,0,1,0,0,68.244h.005a34.122,34.122,0,1,0,0-68.244Z" fill="#fff"/>
      <path id="Path_595" data-name="Path 595" d="M85.428,1.774a32.785,32.785,0,1,0,32.855,32.789A32.821,32.821,0,0,0,85.428,1.774M85.4,43.71a20.835,20.835,0,1,1,20.884-20.832A20.86,20.86,0,0,1,85.4,43.71" fill="#fff"/>
      <path id="Path_596" data-name="Path 596" d="M85.423,67.447h0a32.889,32.889,0,1,1,0-65.777h0a32.889,32.889,0,1,1,0,65.777m0-65.569a32.681,32.681,0,1,0-.005,65.362h0a32.681,32.681,0,1,0,.005-65.362ZM85.4,43.814h0a20.987,20.987,0,0,1-20.984-20.94A20.965,20.965,0,0,1,85.4,1.937h0a20.938,20.938,0,1,1,0,41.877m0-.207h0a20.731,20.731,0,1,0,0-41.463h0a20.731,20.731,0,1,0,0,41.463" fill="#fff"/>
      <path id="Path_597" data-name="Path 597" d="M98.2,43.985a5.323,5.323,0,0,0,3.648-.575s-.011.843.178,1.054c.139.156,6.915,6.537,6.915,6.537l-1.378,1.8L98.2,44.1s-.1-.134,0-.113" fill="#0b9c6c"/>
      <path id="Path_598" data-name="Path 598" d="M97.389,44.939a7.09,7.09,0,0,1-.4,3.7l.951.1,2.652,2.4a27.656,27.656,0,0,1-3.721,2.779s-.134.1-.184,0-1.868-2.847-1.868-2.847-.284,2.43-1.118,3.329v.234a1.625,1.625,0,0,1,.617.1.832.832,0,0,1,.334.217l1.887,2.93A4.55,4.55,0,0,1,96.5,59.1c-.117.333-.268,1.032-1.936,1.431,0,0-.133.5,1.769.367A3.043,3.043,0,0,0,98.8,56.954c-.008-.037-.019-.076-.03-.113,0,0,4.324-2.72,5.952-4.887.011-.015.021-.03.033-.044s-6.7-6.527-7.368-6.971" fill="#0b9c6c"/>
      <path id="Path_599" data-name="Path 599" d="M90.966,51.884s.134-.022.156.155,2.357,7.235,2.357,7.235a25.556,25.556,0,0,1-17.527-.457L79.8,47.066s.057-.044.057,0a6.473,6.473,0,0,0,2.023,2.952l-.012.122a1.182,1.182,0,0,0-.921.887c-.267.82-1.643,4.944-1.643,5.076s.251.134.384.167a20.584,20.584,0,0,0,5.027.7,29.107,29.107,0,0,0,5.383-.448,1.829,1.829,0,0,0-1.119-1.532l-.066-.166a4.885,4.885,0,0,0,2.053-2.942" fill="#0b9c6c"/>
      <path id="Path_600" data-name="Path 600" d="M75.018,49.842a8.418,8.418,0,0,0-4.626.931,7.534,7.534,0,0,0,.306-2.292,3.716,3.716,0,0,1-2.886.548c-.419-.082-.218.2-.218.2.011.022.021.045.03.069a1.791,1.791,0,0,1-1.348,2.76,1.724,1.724,0,0,1-1.7-2.132c.018-.2.318-1.746,2.969-2.378s2.069-.617,2.168-.7.517-.482.351-.716-.483,0-.483,0a3.327,3.327,0,0,1-.383.084,14.48,14.48,0,0,0-3.63.828c-3.338,1.777-2.56,4.683-2.56,4.683,1.222,4.463,5.071,2.194,5.071,2.194a20.661,20.661,0,0,0,6.828,4.329s1.935-5.9,1.98-6.081.957-2.152-1.868-2.329M74.285,52.5c-.155.577-.312,1.25-.467,1.314l-2.492-1.781a5.855,5.855,0,0,1,2.492-.265.6.6,0,0,1,.467.732" fill="#0b9c6c"/>
      <path id="Path_601" data-name="Path 601" d="M73.129,47.247a1.381,1.381,0,1,1,1.381,1.378,1.381,1.381,0,0,1-1.381-1.378" fill="#0b9c6c"/>
      <path id="Path_602" data-name="Path 602" d="M81.667,62.627a1.382,1.382,0,1,1,1.381,1.379,1.379,1.379,0,0,1-1.381-1.379" fill="#0b9c6c"/>
      <path id="Path_603" data-name="Path 603" d="M86.406,62.561a1.381,1.381,0,1,1,1.381,1.378,1.381,1.381,0,0,1-1.381-1.378" fill="#0b9c6c"/>
      <path id="Path_604" data-name="Path 604" d="M97.106,30.519l1.73-7.018a3.772,3.772,0,0,1,2.115-.423,4.729,4.729,0,0,1,2.13.391l1.085,4.959a23.772,23.772,0,0,1-2.852,5.859c-1.164,1.418-4.208-3.768-4.208-3.768" fill="#fff"/>
      <path id="Path_605" data-name="Path 605" d="M100.819,34.584c-1.372,0-3.658-3.875-3.756-4.04l-.011-.018,1.742-7.053.013-.01a3.763,3.763,0,0,1,2.145-.434,4.71,4.71,0,0,1,2.153.4l.02.011,1.092,4.994-.005.013a23.9,23.9,0,0,1-2.86,5.874.671.671,0,0,1-.533.263m-3.658-4.073c.17.287,2.389,3.974,3.658,3.974a.566.566,0,0,0,.454-.226,23.626,23.626,0,0,0,2.841-5.831L103.037,23.5a4.868,4.868,0,0,0-2.081-.376,3.976,3.976,0,0,0-2.074.405Z" fill="#0b9c6c"/>
      <path id="Path_606" data-name="Path 606" d="M103.266,23.32a6.1,6.1,0,0,0-2.315-.456,6.006,6.006,0,0,0-2.3.456l.2.157a4.88,4.88,0,0,1,2.112-.4,5.177,5.177,0,0,1,2.114.374Z" fill="#0b9c6c"/>
      <path id="Path_607" data-name="Path 607" d="M103.2,23.24l-.586-2.758h-.124v.237h-.107v.09h-.08v-.03h-.1v-.136l-.055-.053h-.077v-.261h-.12v.219h-.09l-.05.051v.087h-.092v-.033h-.053v-.116l-.049-.05h-.07v-.255h-.134v.24l-.117.051v.1h-.167V20.5l-.05-.051h-.068V20.2h-.129v.261h-.068l-.069.068v.089H100.6v-.124l-.038-.037h-.087v-.219h-.125v.25h-.065l-.064.064v.082h-.094v.048h-.071v-.085l-.044-.042h-.078v-.219h-.116v.259H99.75l-.061.061v.13h-.095V20.8h-.057v-.094h-.129v-.227h-.134l-.559,2.758a6.042,6.042,0,0,1,2.229-.376,6.294,6.294,0,0,1,2.255.376" fill="#fff"/>
      <path id="Path_608" data-name="Path 608" d="M98.649,23.326l.583-2.895h.227v.226h.125v.074h.055v-.1l.088-.089h.036v-.259h.217V20.5h.049l.072.071v.008h.064v-.052l.095-.094h.035v-.249h.224V20.4h.059l.067.067v.1h.047V20.5l.1-.1h.039v-.262h.229V20.4h.041l.079.08v.093h.066v-.086l.117-.05v-.257h.235v.254h.04l.08.079V20.6l.04-.006v-.021l.08-.08h.061v-.218h.221v.26h.049l.081.083v.107h.081v-.061h.107v-.237h.216l.613,2.892-.088-.037a6.275,6.275,0,0,0-2.235-.373,5.991,5.991,0,0,0-2.207.374Zm.666-2.794-.531,2.629a6.427,6.427,0,0,1,2.16-.347,6.647,6.647,0,0,1,2.186.347l-.556-2.629h-.035v.236h-.107v.091h-.179v-.031h-.1v-.165l-.023-.024h-.108v-.26H102V20.6h-.119l-.021.021v.118h-.192l0-.033h-.049v-.148l-.021-.021h-.1V20.28h-.034V20.5l-.117.051v.121h-.267v-.152l-.021-.022h-.1v-.256h-.027v.263h-.1l-.04.039v.119h-.245v-.153l-.009-.01h-.117v-.218H100.4v.249H100.3l-.035.035v.111h-.1v.047H100v-.112L99.99,20.6h-.108v-.219h-.017v.258h-.094l-.031.032v.16h-.1v.021h-.157v-.1H99.36v-.225Z" fill="#0b9c6c"/>
      <rect id="Rectangle_191" data-name="Rectangle 191" width="0.51" height="0.464" transform="translate(100.699 22.4)" fill="#fff"/>
      <path id="Path_609" data-name="Path 609" d="M101.259,22.913h-.609v-.564h.609Zm-.51-.1h.409V22.45h-.41Z" fill="#0b9c6c"/>
      <path id="Path_610" data-name="Path 610" d="M73.471,30.516,71.742,23.5a3.76,3.76,0,0,0-2.115-.424,4.717,4.717,0,0,0-2.13.391l-1.086,4.959a23.826,23.826,0,0,0,2.85,5.86c1.166,1.418,4.209-3.768,4.209-3.768" fill="#fff"/>
      <path id="Path_611" data-name="Path 611" d="M69.756,34.579h0a.67.67,0,0,1-.532-.263,23.97,23.97,0,0,1-2.859-5.876l-.005-.013,1.093-4.994.02-.01a4.721,4.721,0,0,1,2.151-.4,3.779,3.779,0,0,1,2.147.434l.014.01,0,.018,1.733,7.037-.009.018c-.1.166-2.384,4.04-3.756,4.039m-3.292-6.158A23.742,23.742,0,0,0,69.3,34.253a.566.566,0,0,0,.454.226c1.27,0,3.49-3.684,3.661-3.972L71.7,23.529a3.964,3.964,0,0,0-2.069-.405,4.9,4.9,0,0,0-2.086.376Z" fill="#0b9c6c"/>
      <path id="Path_612" data-name="Path 612" d="M67.311,23.316a6.114,6.114,0,0,1,2.317-.456,6.006,6.006,0,0,1,2.3.456l-.2.158a4.855,4.855,0,0,0-2.111-.4,5.179,5.179,0,0,0-2.115.374Z" fill="#0b9c6c"/>
      <path id="Path_613" data-name="Path 613" d="M67.381,23.235l.586-2.757h.126v.236H68.2V20.8h.079v-.03h.1v-.136l.054-.054h.079v-.26h.12v.218h.091l.05.051v.087h.092v-.033h.051v-.115l.05-.05h.071v-.255h.134v.24l.117.052v.1h.166V20.5l.052-.05h.067v-.256H69.7v.262h.068l.069.068v.089h.147v-.124l.037-.037h.087v-.219h.125v.25H70.3l.064.064v.082h.094v.048h.072v-.085l.042-.042h.078v-.219h.117v.259h.065l.06.06v.13h.1V20.8h.056v-.1h.129v-.226h.134l.557,2.758a6.026,6.026,0,0,0-2.228-.376,6.282,6.282,0,0,0-2.256.374" fill="#fff"/>
      <path id="Path_614" data-name="Path 614" d="M71.931,23.322l-.088-.039a6.012,6.012,0,0,0-2.207-.375,6.289,6.289,0,0,0-2.236.373l-.089.037.616-2.892h.217v.238h.106v.06h.08v-.108l.081-.082h.049v-.261h.221v.219h.061l.079.079V20.6h.042v-.089l.079-.078h.04v-.254h.235v.256l.117.051v.085H69.4v-.093l.08-.08h.038v-.256h.23V20.4h.039l.1.1v.061h.046v-.1L70,20.4h.059V20.18h.224v.249h.036l.095.093v.053h.064v-.008l.072-.071H70.6v-.219h.217v.259h.036l.088.089v.1h.053v-.074h.128v-.226h.224Zm-2.3-.512a6.4,6.4,0,0,1,2.16.348l-.531-2.63h-.044v.226h-.126v.094h-.158v-.021h-.1v-.16l-.03-.032h-.095v-.258H70.7V20.6h-.107l-.013.014v.112h-.17v-.047h-.094v-.111l-.035-.035h-.093V20.28H70.16V20.5h-.117l-.008.01v.153h-.246v-.118l-.041-.039h-.1v-.263h-.029V20.5h-.1l-.022.023v.152h-.266V20.55l-.118-.052v-.222h-.034v.255h-.1l-.021.021V20.7h-.051v.033h-.192v-.117l-.021-.021h-.121v-.219h-.019v.26h-.108l-.023.024v.165h-.1v.031h-.178v-.091h-.107v-.235h-.035l-.56,2.628a6.711,6.711,0,0,1,2.189-.345" fill="#0b9c6c"/>
      <rect id="Rectangle_192" data-name="Rectangle 192" width="0.508" height="0.464" transform="translate(69.371 22.396)" fill="#fff"/>
      <path id="Path_615" data-name="Path 615" d="M69.93,22.909h-.609v-.564h.609Zm-.51-.1h.409v-.364H69.42Z" fill="#0b9c6c"/>
      <path id="Path_616" data-name="Path 616" d="M92.894,21.1l-15.008.147L69.84,25.517l-.8,7.9s3.881,8.889,17.392,9.056" fill="#fff"/>
      <path id="Path_617" data-name="Path 617" d="M86.43,42.573c-7.01-.086-11.388-2.556-13.826-4.613a14.083,14.083,0,0,1-3.657-4.5l-.01-.025,0-.025.807-7.954,8.115-4.307h.024L92.894,21v.2l-14.983.147L69.934,25.58,69.14,33.4a14.082,14.082,0,0,0,3.6,4.414c2.412,2.032,6.747,4.474,13.693,4.56Z" fill="#0b9c6c"/>
      <path id="Path_618" data-name="Path 618" d="M86.43,42.474a19.467,19.467,0,0,0,15.439-8.962l-.89-8.033L92.893,21.1" fill="#fff"/>
      <path id="Path_619" data-name="Path 619" d="M86.43,42.573v-.2a18.634,18.634,0,0,0,5.583-1.117,18.9,18.9,0,0,0,9.751-7.771l-.879-7.948-8.038-4.353.1-.176,8.131,4.4.9,8.12-.02.03a19.1,19.1,0,0,1-9.88,7.885,18.792,18.792,0,0,1-5.642,1.125" fill="#0b9c6c"/>
      <path id="Path_620" data-name="Path 620" d="M91.938,17.077a14.412,14.412,0,0,0-6.511-1.2c-4.745,0-6.466,1.3-6.466,1.3L73.67,38.636A19.741,19.741,0,0,0,85.4,42.474a18.837,18.837,0,0,0,11.8-3.892Z" fill="#fff"/>
      <path id="Path_621" data-name="Path 621" d="M85.4,42.573a19.768,19.768,0,0,1-11.788-3.859l-.052-.039.015-.064,5.3-21.494L78.9,17.1c.072-.055,1.8-1.317,6.526-1.318h.014a14.713,14.713,0,0,1,6.548,1.213l.037.021.011.041,5.276,21.569-.05.04A19.029,19.029,0,0,1,85.4,42.573m-11.615-3.98A19.564,19.564,0,0,0,85.4,42.375a18.825,18.825,0,0,0,11.69-3.833l-5.235-21.4a14.864,14.864,0,0,0-6.412-1.167h-.014c-4.34,0-6.139,1.1-6.379,1.258Z" fill="#0b9c6c"/>
      <path id="Path_622" data-name="Path 622" d="M92.484,16.622a18.63,18.63,0,0,0-7.082-1.4,18.3,18.3,0,0,0-7.042,1.4l.609.477a14.876,14.876,0,0,1,6.457-1.22,15.813,15.813,0,0,1,6.467,1.144Z" fill="#0b9c6c"/>
      <path id="Path_623" data-name="Path 623" d="M92.407,16.522,90.5,7.938h-.382v.724H89.8v.275h-.243V8.845h-.307V8.428l-.163-.163h-.238V7.471h-.367v.665H88.2l-.154.154v.27H87.77v-.1h-.159V8.1l-.155-.154h-.212V7.172h-.409V7.9l-.359.159v.315h-.508V8l-.16-.158H85.6V7.063H85.21v.8H85l-.212.211v.27h-.447V7.962l-.117-.116h-.267V7.18h-.384v.766h-.2l-.2.195v.254h-.287v.141h-.216V8.277l-.13-.128h-.238V7.478h-.358v.791h-.2l-.184.183v.4h-.291v.064H81.1v-.29h-.392v-.69H80.3l-1.83,8.633A17.067,17.067,0,0,1,85.4,15.219a18.221,18.221,0,0,1,7,1.3" fill="#fff"/>
      <path id="Path_624" data-name="Path 624" d="M78.327,16.751l1.889-8.914h.59v.692H81.2v.224h.267V8.411l.243-.241h.141V7.38h.558V8.05h.178l.189.187v.2h.017V8.3h.288V8.1l.255-.254h.141V7.082h.584v.664h.207l.177.176v.323h.246V8.034l.271-.271h.15v-.8H85.7v.782h.15l.217.217V8.28h.308V8l.359-.159V7.073h.609v.778H87.5l.212.212v.3h.159v.1h.079V8.251l.213-.212h.217V7.374h.568v.794h.179l.221.22v.358h.307v.092H89.7V8.563h.325V7.839h.564L92.549,16.7l-.184-.085A18.322,18.322,0,0,0,85.4,15.323a17.121,17.121,0,0,0-6.892,1.338Zm2.051-8.714L78.606,16.4a17.882,17.882,0,0,1,6.8-1.276,19.055,19.055,0,0,1,6.865,1.23L90.425,8.038h-.2v.725H89.9v.274h-.443V8.946h-.308V8.47l-.1-.1h-.3v-.8h-.167v.666h-.334l-.1.1v.329h-.479v-.1h-.159V8.144l-.1-.094h-.271V7.272h-.208v.7l-.36.159v.35h-.708V8.045l-.1-.1H85.5V7.163H85.31v.8h-.268l-.153.155v.328h-.647V8l-.058-.057h-.325V7.28h-.184v.764h-.26l-.137.137v.312h-.287v.143h-.418V8.318l-.071-.07h-.3V7.577h-.159v.79H81.79l-.125.124v.459h-.293v.066H81V8.725H80.6v-.69h-.227Z" fill="#0b9c6c"/>
      <path id="Path_625" data-name="Path 625" d="M86.311,15.322H84.554V13.7h1.758Zm-1.557-.2h1.358V13.9H84.755Z" fill="#0b9c6c"/>
      <path id="Path_626" data-name="Path 626" d="M91.725,29.1s-2.432-.3-6.3,2.556c0,0-3.317-2.655-6.155-2.847,0,0,4.971,2.3,5.648,3.3a6.769,6.769,0,0,1-1.3,1.279s-.548-1.21-1.1-.62a.359.359,0,0,0-.024.571s.308.33.53.117l.144.176a.978.978,0,0,1-.557.386s-.722-.383-.737.461c0,0,.422.917,1.793-.272,0,0,.622.751,1.074.621,0,0,.859-.26.15-.849,0,0-.236-.219-.585.2l-.283-.24s1.278-1.187,1.369-1.259,1.326,1.25,1.326,1.25l-.176.234a.5.5,0,0,0-.863.122s.132,1.043,1.018.349l.443-.4s1.02,1.033,1.6.6c0,0,.443-.38.134-.688a.422.422,0,0,0-.6-.092s-.249.056-.655-.387l.2-.211s.424.349.654-.23c0,0,.185-.53-.66-.522,0,0-.269.124-.543.749L86,32.2a14.073,14.073,0,0,1,5.727-3.1" fill="#0b9c6c"/>
      <path id="Path_627" data-name="Path 627" d="M85.246,24.939a1.459,1.459,0,0,0-.279,1.088,1.416,1.416,0,0,1-.178-1.732s-.613.076-.841,1.329a2.018,2.018,0,0,1,.339-1.97,2.621,2.621,0,0,0-1.036,1.208,1.849,1.849,0,0,1,1.061-1.733,1.891,1.891,0,0,0-.993.257,1.256,1.256,0,0,1,1.6-.7s-.463-.59-.766-.58a1.7,1.7,0,0,1,1.229.3.647.647,0,0,1,.185-.532,2.18,2.18,0,0,0,.364.557,1.327,1.327,0,0,1,.995-.256s-.46.321-.529.521c0,0,1.308-.035,1.509.931,0,0-.766-.564-1.185-.412a2.088,2.088,0,0,1,1.288,1.714s-.749-1.112-1.148-1.174c0,0,.7,1.159.284,1.857,0,0-.29-1.249-.663-1.434,0,0,.174,1.392-.266,1.832,0,0-.174-.995-.514-1.134l-.055,4.056a.875.875,0,0,0,.132.451,1.29,1.29,0,0,0-.008.388.474.474,0,0,1,.1.224.712.712,0,0,1-.008.388,1.24,1.24,0,0,0,.244.4l-1.368.05a1.867,1.867,0,0,0,.276-.557.994.994,0,0,1,.092-.6,3.193,3.193,0,0,1,.178-.758Z" fill="#0b9c6c"/>
      <path id="Path_628" data-name="Path 628" d="M85.4,42.807A20.014,20.014,0,1,1,105.459,22.8,20.059,20.059,0,0,1,85.4,42.807M85.4,3.313A19.481,19.481,0,1,0,104.925,22.8,19.526,19.526,0,0,0,85.4,3.313" fill="#fff"/>
      <path id="Path_629" data-name="Path 629" d="M0,94.815a13.627,13.627,0,0,1,.412-3.284l2.947-.551a12.979,12.979,0,0,0-.518,3.545q0,3.424,2.131,3.424,2.035,0,2.035-3.424V86.941H9.84v.289a12.681,12.681,0,0,1-.21,2.445h.035a4.641,4.641,0,0,1,1.763-2.221,4.422,4.422,0,0,1,2.526-.775,3.727,3.727,0,0,1,2.955,1.166,5.474,5.474,0,0,1-.325,6.679,6.08,6.08,0,0,1-4.368,1.4H9.7q-.482,4.394-4.938,4.394Q0,100.32,0,94.815m12.445-1.259q2.517,0,2.517-2.37,0-2.1-1.6-2.1A2.867,2.867,0,0,0,11.139,90.4a7.07,7.07,0,0,0-1.333,3.153Zm.254-8.35a1.508,1.508,0,0,1-.412-1.072,1.481,1.481,0,0,1,.412-1.054,1.369,1.369,0,0,1,1.991,0,1.466,1.466,0,0,1,.412,1.054,1.507,1.507,0,0,1-.412,1.072,1.322,1.322,0,0,1-1,.439,1.294,1.294,0,0,1-.991-.439" fill="#fff"/>
      <path id="Path_630" data-name="Path 630" d="M19.83,82.454h2.841v11.1h1.684v2.37H19.83Z" fill="#fff"/>
      <rect id="Rectangle_193" data-name="Rectangle 193" width="4.446" height="2.37" transform="translate(24.092 93.556)" fill="#fff"/>
      <rect id="Rectangle_194" data-name="Rectangle 194" width="4.446" height="2.37" transform="translate(28.373 93.556)" fill="#fff"/>
      <path id="Path_631" data-name="Path 631" d="M32.653,93.556h3.236V86.941h2.833v8.983H32.653Zm2.482,6.278a1.233,1.233,0,0,1-.956.429,1.25,1.25,0,0,1-.956-.429,1.568,1.568,0,0,1,0-2.081,1.279,1.279,0,0,1,1.911,0,1.568,1.568,0,0,1,0,2.081m3.2,0a1.288,1.288,0,0,1-1.92,0,1.595,1.595,0,0,1,0-2.081,1.288,1.288,0,0,1,1.92,0,1.595,1.595,0,0,1,0,2.081" fill="#fff"/>
      <path id="Path_632" data-name="Path 632" d="M40.081,100.627l.2-2.388a4.6,4.6,0,0,0,1.219.149,1.481,1.481,0,0,0,1.21-.466,2.97,2.97,0,0,0,.421-1.81v-9.17h2.841v6.615h1.631v2.37H45.974V96q0,4.739-4.622,4.739a6.938,6.938,0,0,1-1.271-.113" fill="#fff"/>
      <path id="Path_633" data-name="Path 633" d="M47.317,93.556H49.36v-11.1H52.22V95.925h-4.9Z" fill="#fff"/>
      <rect id="Rectangle_195" data-name="Rectangle 195" width="2.841" height="13.471" transform="translate(55.009 82.454)" fill="#fff"/>
      <path id="Path_634" data-name="Path 634" d="M68.235,95.925q-4.85,0-4.85-4.394a4.922,4.922,0,0,1,1.158-3.377,4.719,4.719,0,0,1,3.727-1.474,10.279,10.279,0,0,1,3.877.663v6.213h1.623v2.37ZM65.463,85.262a1.509,1.509,0,0,1-.386-1.045,1.531,1.531,0,0,1,.386-1.045,1.279,1.279,0,0,1,1.911,0,1.509,1.509,0,0,1,.395,1.045,1.488,1.488,0,0,1-.395,1.045,1.262,1.262,0,0,1-1.911,0m3.921,4.085a2.89,2.89,0,0,0-1.386-.3,1.586,1.586,0,0,0-1.324.634,2.488,2.488,0,0,0-.465,1.558,2.046,2.046,0,0,0,2.316,2.313h.859V89.348Zm-.728-4.085a1.608,1.608,0,0,1,0-2.09,1.288,1.288,0,0,1,1.92,0,1.531,1.531,0,0,1,.386,1.045,1.509,1.509,0,0,1-.386,1.045,1.271,1.271,0,0,1-1.92,0" fill="#fff"/>
      <rect id="Rectangle_196" data-name="Rectangle 196" width="4.446" height="2.37" transform="translate(73.497 93.556)" fill="#fff"/>
      <path id="Path_635" data-name="Path 635" d="M77.777,93.556h.553a5.005,5.005,0,0,1,.991.093,3.542,3.542,0,0,1-.587-2.155,4.749,4.749,0,0,1,1.324-3.48,4.538,4.538,0,0,1,3.377-1.334A4.253,4.253,0,0,1,86.6,87.8a4.5,4.5,0,0,1,1.131,3.312,3.434,3.434,0,0,1-.815,2.537,8.706,8.706,0,0,1,1.245-.093h.79v2.37H77.778V93.556Zm2.92-8.293a1.509,1.509,0,0,1-.386-1.045,1.531,1.531,0,0,1,.386-1.045,1.279,1.279,0,0,1,1.911,0A1.509,1.509,0,0,1,83,84.217a1.488,1.488,0,0,1-.395,1.045,1.221,1.221,0,0,1-.956.438,1.242,1.242,0,0,1-.956-.438m3.728,7.714A2.7,2.7,0,0,0,84.89,91.3q0-2.249-1.631-2.248a1.508,1.508,0,0,0-1.167.513,2.407,2.407,0,0,0-.526,1.66q0,2.332,1.631,2.333a1.483,1.483,0,0,0,1.229-.579m-.535-7.714a1.608,1.608,0,0,1,0-2.09,1.288,1.288,0,0,1,1.92,0,1.509,1.509,0,0,1,.395,1.045,1.488,1.488,0,0,1-.395,1.045,1.271,1.271,0,0,1-1.92,0" fill="#fff"/>
      <path id="Path_636" data-name="Path 636" d="M88.679,93.556h2.009v-11.1h2.859v4.776a11.145,11.145,0,0,1-.237,2.445h.035a4.69,4.69,0,0,1,1.772-2.221,4.451,4.451,0,0,1,2.526-.775,3.7,3.7,0,0,1,2.947,1.166,4.681,4.681,0,0,1,.982,3.172A5.256,5.256,0,0,1,101,93.555h1.781v2.37h-14.1Zm7.6,0a2.123,2.123,0,0,0,2.377-2.37q0-2.1-1.6-2.1a2.855,2.855,0,0,0-2.21,1.316,6.935,6.935,0,0,0-1.324,3.153Z" fill="#fff"/>
      <path id="Path_637" data-name="Path 637" d="M102.4,93.556h2.421V86.941h2.859v6.615h1.614v2.37H102.4Zm2.85-8.35a1.524,1.524,0,0,1-.4-1.072,1.5,1.5,0,0,1,.4-1.054,1.324,1.324,0,0,1,.991-.429,1.344,1.344,0,0,1,1.009.429,1.466,1.466,0,0,1,.412,1.054,1.507,1.507,0,0,1-.412,1.072,1.331,1.331,0,0,1-1.009.439,1.311,1.311,0,0,1-.991-.439" fill="#fff"/>
      <path id="Path_638" data-name="Path 638" d="M109.018,95.925v-2.37h.772a2.611,2.611,0,0,1,.973.149,3.129,3.129,0,0,1-.79-2.407,4.54,4.54,0,0,1,1.184-3.209,4.669,4.669,0,0,1,3.587-1.408,4.034,4.034,0,0,1,3.219,1.241,4.756,4.756,0,0,1,.991,3.21v4.795Zm7.166-4.468q0-2.407-1.614-2.407a1.594,1.594,0,0,0-1.333.634,2.488,2.488,0,0,0-.465,1.558,2.046,2.046,0,0,0,2.315,2.313h1.1Z" fill="#fff"/>
      <path id="Path_639" data-name="Path 639" d="M128.971,95.925q-4.85,0-4.85-4.394a4.922,4.922,0,0,1,1.158-3.377,4.719,4.719,0,0,1,3.727-1.474,10.279,10.279,0,0,1,3.877.663v6.213h1.623v2.37ZM126.2,85.262a1.509,1.509,0,0,1-.386-1.045,1.531,1.531,0,0,1,.386-1.045,1.279,1.279,0,0,1,1.911,0,1.509,1.509,0,0,1,.395,1.045,1.488,1.488,0,0,1-.395,1.045,1.262,1.262,0,0,1-1.911,0m3.921,4.085a2.89,2.89,0,0,0-1.386-.3,1.586,1.586,0,0,0-1.324.634,2.488,2.488,0,0,0-.465,1.558,2.046,2.046,0,0,0,2.315,2.313h.859Zm-.729-4.085a1.608,1.608,0,0,1,0-2.09,1.288,1.288,0,0,1,1.92,0,1.531,1.531,0,0,1,.386,1.045,1.509,1.509,0,0,1-.386,1.045,1.271,1.271,0,0,1-1.92,0" fill="#fff"/>
      <rect id="Rectangle_197" data-name="Rectangle 197" width="4.446" height="2.37" transform="translate(134.234 93.556)" fill="#fff"/>
      <path id="Path_640" data-name="Path 640" d="M138.513,93.556h2.421V86.941h2.859v8.983h-5.28Zm2.851-8.35a1.524,1.524,0,0,1-.4-1.072,1.5,1.5,0,0,1,.4-1.054,1.324,1.324,0,0,1,.991-.429,1.344,1.344,0,0,1,1.009.429,1.466,1.466,0,0,1,.412,1.054,1.507,1.507,0,0,1-.412,1.072,1.331,1.331,0,0,1-1.009.439,1.311,1.311,0,0,1-.991-.439" fill="#fff"/>
      <path id="Path_641" data-name="Path 641" d="M146.355,82.454H149.2v11.1h1.684v2.37h-4.526Z" fill="#fff"/>
      <rect id="Rectangle_198" data-name="Rectangle 198" width="4.446" height="2.37" transform="translate(150.617 93.556)" fill="#fff"/>
      <path id="Path_642" data-name="Path 642" d="M154.9,95.925v-2.37h.772a2.611,2.611,0,0,1,.973.149,3.129,3.129,0,0,1-.79-2.407,4.54,4.54,0,0,1,1.184-3.209,4.669,4.669,0,0,1,3.587-1.408,4.034,4.034,0,0,1,3.219,1.241,4.756,4.756,0,0,1,.991,3.21v4.795Zm7.166-4.468q0-2.407-1.614-2.407a1.594,1.594,0,0,0-1.333.634,2.488,2.488,0,0,0-.465,1.558,2.046,2.046,0,0,0,2.315,2.313h1.1Z" fill="#fff"/>
      <path id="Path_643" data-name="Path 643" d="M166.185,80.5a3.827,3.827,0,0,1,.956.1.9.9,0,0,1-.324-.783,1.735,1.735,0,0,1,.64-1.353,3.169,3.169,0,0,1,2.158-.663,4.692,4.692,0,0,1,.737.065l.377.056-.254,1.493-.3-.047a5.572,5.572,0,0,0-.631-.037q-.824,0-.824.56,0,.607,1.184.606H171v1.53h-4.815Zm1.1,2.527h2.841V95.925h-2.841Z" fill="#fff"/>
      <path id="Path_644" data-name="Path 644" d="M4.554,114.841l-1.779-3.189H2.67v3.189H.9v-8.148q.809-.065,2.394-.065,2.894,0,2.894,2.417a2.346,2.346,0,0,1-.46,1.438,2.162,2.162,0,0,1-1.2.82q.411.59.593.92l1.591,2.617H4.554Zm-1.391-6.662a4.37,4.37,0,0,0-.494.024v2.087a3.506,3.506,0,0,0,.443.024,1.3,1.3,0,0,0,.9-.3,1.042,1.042,0,0,0,.333-.813q0-1.026-1.181-1.026" fill="#fff"/>
      <rect id="Rectangle_199" data-name="Rectangle 199" width="1.768" height="8.148" transform="translate(8.106 106.693)" fill="#fff"/>
      <path id="Path_645" data-name="Path 645" d="M15.389,111.993v2.847H13.615V112l-2.394-5.312H13.15l.876,2.075q.3.726.488,1.3h.022q.15-.465.593-1.474l.826-1.9h1.862Z" fill="#fff"/>
      <path id="Path_646" data-name="Path 646" d="M23.785,114.841l-.465-1.51H20.648l-.455,1.51H18.436l2.544-8.148h2.1l2.644,8.148Zm-1.513-5q-.155-.489-.294-1.132h-.022q-.172.779-.272,1.144l-.616,1.993h1.818Z" fill="#fff"/>
      <path id="Path_647" data-name="Path 647" d="M32.315,113.8a4.1,4.1,0,0,1-3.021,1.1q-.865,0-2.273-.07v-8.112q1.2-.077,2.611-.077,3.836,0,3.836,3.962a4.3,4.3,0,0,1-1.154,3.195m-1.175-4.887a1.851,1.851,0,0,0-1.618-.684,7.236,7.236,0,0,0-.731.024v4.988a4.219,4.219,0,0,0,.66.048,1.944,1.944,0,0,0,1.518-.619,2.757,2.757,0,0,0,.6-1.916,3.174,3.174,0,0,0-.433-1.841" fill="#fff"/>
      <path id="Path_648" data-name="Path 648" d="M39.763,114.841v-3.39h-2.8v3.39H35.19v-8.148h1.768v3.125h2.8v-3.125h1.774v8.148Z" fill="#fff"/>
      <path id="Path_649" data-name="Path 649" d="M50.127,114.841l-1.779-3.189h-.105v3.189H46.475v-8.148q.809-.065,2.394-.065,2.894,0,2.894,2.417a2.346,2.346,0,0,1-.46,1.438,2.162,2.162,0,0,1-1.2.82q.411.59.593.92l1.591,2.617H50.127Zm-1.392-6.662a4.37,4.37,0,0,0-.494.024v2.087a3.506,3.506,0,0,0,.443.024,1.3,1.3,0,0,0,.9-.3,1.042,1.042,0,0,0,.333-.813q0-1.026-1.181-1.026" fill="#fff"/>
      <path id="Path_650" data-name="Path 650" d="M53.679,114.841v-8.148h4.312v1.58H55.447v1.615h2.411v1.532H55.447v1.8h2.544v1.615H53.679Z" fill="#fff"/>
      <path id="Path_651" data-name="Path 651" d="M66.155,114.44a6.614,6.614,0,0,1-2.694.537,3.834,3.834,0,0,1-2.916-1.067,3.984,3.984,0,0,1-.975-2.86,4.571,4.571,0,0,1,1.12-3.261,4.209,4.209,0,0,1,3.215-1.221,7.151,7.151,0,0,1,2.217.336l-.355,1.716a5.077,5.077,0,0,0-1.94-.371,2.188,2.188,0,0,0-1.8.743,2.789,2.789,0,0,0-.555,1.828,2.681,2.681,0,0,0,.543,1.792,2.033,2.033,0,0,0,1.635.66,2.1,2.1,0,0,0,.726-.112V110.5h1.774Z" fill="#fff"/>
      <rect id="Rectangle_200" data-name="Rectangle 200" width="1.768" height="8.148" transform="translate(68.172 106.693)" fill="#fff"/>
      <path id="Path_652" data-name="Path 652" d="M77.837,113.821A3.469,3.469,0,0,1,75.155,115a3.243,3.243,0,0,1-2.655-1.1,5.321,5.321,0,0,1,.245-6.191,3.476,3.476,0,0,1,2.682-1.173,3.243,3.243,0,0,1,2.655,1.1,5.312,5.312,0,0,1-.245,6.185M75.3,108.25a1.553,1.553,0,0,0-1.3.636,2.939,2.939,0,0,0-.51,1.828q0,2.559,1.779,2.558a1.553,1.553,0,0,0,1.3-.636,2.9,2.9,0,0,0,.51-1.816q0-2.568-1.779-2.57" fill="#fff"/>
      <path id="Path_653" data-name="Path 653" d="M84.82,114.841l-1.978-4.009a10.614,10.614,0,0,1-.6-1.568q.077,1.409.078,3.413v2.163H80.63v-8.148h2.328l1.907,3.873a12.814,12.814,0,0,1,.66,1.627q-.083-1.22-.083-3.472v-2.028h1.7v8.148Z" fill="#fff"/>
      <path id="Path_654" data-name="Path 654" d="M99.28,114.841l-.488-3.432q-.127-.82-.238-2.028h-.022q-.216,1.174-.455,2.093l-.975,3.366H95.456l-.931-3.113a17.428,17.428,0,0,1-.51-2.347h-.022q-.094,1.309-.216,2.2l-.371,3.261H91.62l1.225-8.148H94.88l1.064,3.608a17.849,17.849,0,0,1,.421,1.775h.022a17.26,17.26,0,0,1,.432-1.775l1.081-3.608h2l1.225,8.148Z" fill="#fff"/>
      <path id="Path_655" data-name="Path 655" d="M108.979,111.64q0,3.36-3.248,3.36-3.031,0-3.032-3.031v-5.277h1.768v5.164a1.859,1.859,0,0,0,.283,1.138,1.294,1.294,0,0,0,1.092.419,1.341,1.341,0,0,0,1.07-.371,2.051,2.051,0,0,0,.316-1.291v-5.058h1.751Z" fill="#fff"/>
      <path id="Path_656" data-name="Path 656" d="M115.209,114.841l-1.978-4.009a10.615,10.615,0,0,1-.6-1.568q.077,1.409.078,3.413v2.163h-1.691v-8.148h2.328l1.907,3.873a12.812,12.812,0,0,1,.66,1.627q-.083-1.22-.083-3.472v-2.028h1.7v8.148Z" fill="#fff"/>
      <rect id="Rectangle_201" data-name="Rectangle 201" width="1.768" height="8.148" transform="translate(119.564 106.693)" fill="#fff"/>
      <path id="Path_657" data-name="Path 657" d="M128.564,114.6a5.123,5.123,0,0,1-1.907.348,3.312,3.312,0,0,1-2.855-1.25,4.351,4.351,0,0,1-.731-2.635,4.823,4.823,0,0,1,.992-3.207,3.565,3.565,0,0,1,2.887-1.227,4.905,4.905,0,0,1,1.569.23l-.227,1.716a3.735,3.735,0,0,0-1.374-.254,1.668,1.668,0,0,0-1.413.66,2.841,2.841,0,0,0-.493,1.769q0,2.488,2,2.488a2.691,2.691,0,0,0,1.3-.307Z" fill="#fff"/>
      <rect id="Rectangle_202" data-name="Rectangle 202" width="1.768" height="8.148" transform="translate(130.355 106.693)" fill="#fff"/>
      <path id="Path_658" data-name="Path 658" d="M138.7,111.351a3.111,3.111,0,0,1-2.339.872c-.159,0-.3,0-.421-.011v2.63h-1.768v-8.148q1.092-.065,2.295-.065,3.015,0,3.015,2.612a2.919,2.919,0,0,1-.782,2.111m-2.317-3.172c-.144,0-.292,0-.443.011v2.435a2.43,2.43,0,0,0,.516.048q1.2,0,1.2-1.267,0-1.227-1.275-1.227" fill="#fff"/>
      <path id="Path_659" data-name="Path 659" d="M145.662,114.841l-.465-1.51h-2.672l-.455,1.51h-1.757l2.544-8.148h2.1l2.644,8.148Zm-1.514-5q-.155-.489-.294-1.132h-.022q-.172.779-.271,1.144l-.616,1.993h1.818Z" fill="#fff"/>
      <path id="Path_660" data-name="Path 660" d="M148.9,114.841v-8.148h1.768v6.479h2.317v1.668H148.9Z" fill="#fff"/>
      <rect id="Rectangle_203" data-name="Rectangle 203" width="1.768" height="8.148" transform="translate(154.457 106.693)" fill="#fff"/>
      <path id="Path_661" data-name="Path 661" d="M161.345,108.3v6.544h-1.757V108.3h-1.84v-1.6h5.437v1.6Z" fill="#fff"/>
      <path id="Path_662" data-name="Path 662" d="M168.174,111.993v2.847H166.4V112l-2.395-5.312h1.929l.876,2.075q.3.726.488,1.3h.022q.15-.465.593-1.474l.826-1.9H170.6Z" fill="#fff"/>
    </g>
  </g>
</svg>
